<svg id="Layer_1" data-name="Layer 1" xmlns="http://www.w3.org/2000/svg" viewBox="0 0 32 32"><defs><style>.cls-1{fill:#4b4fb8;}</style></defs><path id="animals-allowed" class="cls-1" d="M29.33,10.73a.75.75,0,0,0-.58-.17h0c-.75-.17-1.54-.32-1.79-1.18A2.86,2.86,0,0,0,24.21,7.6c-2-4.29-3.14-2.79-3.15,1,.15,1.16-.72,2.1-.88,3.26-1.25.51-2.81.44-3.9,1.37-1,.31-2.27-.28-3.36-.39a4.56,4.56,0,0,0-3.84,1.39c-2.35.14-3.69-2.58-4.32-4.49a7.49,7.49,0,0,1-.48-2.56.52.52,0,0,0-.19-.42c-1.69-1.34-1.17,4.89-.86,5.62-.46-.22-.87.33-.68.76h0c.79,2.2,3.26,3.24,5.48,3.1A5,5,0,0,0,9.18,20.2a2.18,2.18,0,0,1-.84,1.35.78.78,0,0,0-.1.77c.11.91.2,2.31.3,3.19a.75.75,0,0,0,.35.7,5.72,5.72,0,0,0,4.2.63c1.1-.31.43-1.67-.09-2.23a.56.56,0,0,0-.66-.09,3.16,3.16,0,0,1-1.3.09,6.3,6.3,0,0,1-.18-1.79,3.79,3.79,0,0,0,2.35-2.43,11.66,11.66,0,0,0,4.85.15l.06,3c.12.91-.22,1.92.27,2.71.88.47,4.36,1.38,4.07-.46-.08-.55-.3-1.27-1-1.28h-.61a1.22,1.22,0,0,1-.38-.07,29.12,29.12,0,0,1,.18-4.76,4.88,4.88,0,0,0,2.36-3c.39-1.12.78-2.48,2-3a16.22,16.22,0,0,0,2.4.22c.46,0,.59-.27.85-.57a.24.24,0,0,1,.08-.06.87.87,0,0,0,.64-.22,3.2,3.2,0,0,0,.53-2A.56.56,0,0,0,29.33,10.73Zm-9,8.68h0Z"/></svg>