<svg id="Layer_1" data-name="Layer 1" xmlns="http://www.w3.org/2000/svg" viewBox="0 0 40 40"><defs><style>.cls-1{fill:#4d4bc0;}</style></defs><path id="back-icon" class="cls-1" d="M40,.73A.66.66,0,0,0,39.36,0c-4.8.37-9.71.18-14.55.28C17.28.3,9.74.25,2.2.3A1.2,1.2,0,0,0,1,.73C.48,13.45.62,26.38,0,39.15a.63.63,0,0,0,.77.61c8.7,0,17.44-.12,26.14.07,4,.31,7.92.12,11.88,0,.35,0,.78-.13.89-.51C39.89,26.55,39.89,13.59,40,.73ZM37.89,8.52q-.8,14.68-.36,29.38c-10.1-.13-25.18.42-35.24-.54Q2.1,20,2.75,2.55C14.46,2,26.21,2,37.92,2.58Q37.89,5.55,37.89,8.52ZM32.28,21.8c-.11-1.2.08-2.45-.08-3.64a.63.63,0,0,0-.6-.44c-4.55-.2-9.12-.39-13.67-.52l.08-4c0-.71-.9-.77-1.34-.39-3.07,2.4-6.13,4.88-9,7.5a.64.64,0,0,0,.08,1h0a72.49,72.49,0,0,0,8.53,8.09c.33.31.84.68,1.24.26a.64.64,0,0,0,.19-.45v-4q6.93.2,13.87,0a1,1,0,0,0,.86-.86C32.38,23.47,32.3,22.64,32.28,21.8ZM14,21.06a.26.26,0,0,1,0,.07h0A.2.2,0,0,0,14,21.06Zm10.91-1.92Z"/></svg>