<svg id="Layer_1" data-name="Layer 1" xmlns="http://www.w3.org/2000/svg" viewBox="0 0 32 32"><defs><style>.cls-1{fill:#fff;}</style></defs><path id="close-icon" class="cls-1" d="M28.49,26.88c-3.6-3.41-7.22-6.8-10.52-10.47,2.82-2.79,5.78-5.5,8.81-8.07l0,0c.84-.86,2.64-1.59,2.14-3a3.19,3.19,0,0,0-3.32-1.85,6.16,6.16,0,0,0-3.44,2c-2.51,2.35-4.89,4.81-7.18,7.36A51.74,51.74,0,0,1,9.47,4.59c-.54-.83-.65-2.12-1.73-2.47-2.56-.61-5.07,1.14-4,3.81A13.83,13.83,0,0,0,6.2,9.85a83.82,83.82,0,0,0,5.48,6.73Q7.3,21.79,3.39,27.35A1.62,1.62,0,0,0,3,28.44c.08,1.31,2.1,2.15,3,1.06,2.75-3.36,5.62-6.65,8.67-9.77a78.07,78.07,0,0,0,9.63,8.14c1.21.8,3.16,2.59,4.42,1A1.47,1.47,0,0,0,28.49,26.88ZM25,7ZM6.91,5.43Z"/></svg>