<svg id="Layer_1" data-name="Layer 1" xmlns="http://www.w3.org/2000/svg" viewBox="0 0 228 96"><defs><style>.cls-1{fill:#82bc5b;}.cls-2{fill:#e88986;}.cls-3{fill:#eebc8b;}</style></defs><g id="confetti"><path class="cls-1" d="M99.71,88.48a27.88,27.88,0,0,0,9.7-9,33.68,33.68,0,0,0,5.09-12.81,41.44,41.44,0,0,0,.14-13.28c-.59-3.9-1.06-9.22-5-11-1.35-.61-3.91,1.68-3.4,3a65.12,65.12,0,0,1,3.48,10.37,41.35,41.35,0,0,1,1,12c-.64,7.37-4.38,15.55-11.25,20.4C99,88.47,99.34,88.68,99.71,88.48Z"/><path class="cls-1" d="M59.41,88.5a37.58,37.58,0,0,0,7.08,6.59l0,0a12.64,12.64,0,0,1-5.75-8.24,37.36,37.36,0,0,1-1.1-9.36,32.78,32.78,0,0,1,1.74-8.8c1-3.09,3.11-6.29,3.48-9.41.12-1.17-.85-2-2-.88-3,2.95-4.46,7.21-5.47,11a32.13,32.13,0,0,0-1,10.16C56.58,82.8,57.27,86.11,59.41,88.5Z"/><path class="cls-1" d="M157.45,59.07c5.47-5.17,5.47-13.06,7.8-19.37a24.34,24.34,0,0,1,6.46-10.13c3.11-2.74,6.81-3.3,10.38-5.09,1-.53,2.93-3,1.23-3.55-4-1.4-8.83,1.45-12.1,4.18a27.22,27.22,0,0,0-7.65,10.68,48,48,0,0,0-2.87,12.3c-.48,3.73-1,7.58-3.33,11C157.35,59.13,157.44,59.08,157.45,59.07Z"/><path class="cls-1" d="M98.66,32.56c4.87-3.8,5-9.55,4.63-14.54a32.74,32.74,0,0,0-1.62-8.7C100.8,7,99.15,3,95.84,3.21c-.89.06-1.3,1.41-1.14,2,.6,2.3,2.11,4.09,3,6.24a26.55,26.55,0,0,1,1.57,7.13c.22,2.1.3,4.21.33,6.34s.08,4.89-1.14,7.1C98.34,32.23,98.25,32.89,98.66,32.56Z"/><path class="cls-1" d="M151.45,96c5.9.08,11.47-5.3,15.36-9.38,2.52-2.63,4.84-5.41,7.36-8.05a78.88,78.88,0,0,1,8.51-7.49c1.15-.9,1.06-4.56-.82-3.61-6.26,3.18-10.71,9.4-15.15,14.51a72.6,72.6,0,0,1-14.94,13.18C151.62,95.27,151,96,151.45,96Z"/><path class="cls-2" d="M125.73,56.85a15.28,15.28,0,0,0,5.13-17.19c-.41-1-3.32-.34-3,.81a18.35,18.35,0,0,1,.09,8.6c-.61,2.7-2,5.16-2.86,7.81C124.94,57.2,125.64,56.92,125.73,56.85Z"/><path class="cls-2" d="M150.5,80.07c2.68-.54,3.91-2.68,5.2-4.83a36.24,36.24,0,0,1,2.79-4.11c1.06-1.33,2.39-2.33,3.53-3.57.87-.94.07-1.47-.94-1.13-6.14,2.06-7.63,8.84-11.1,13.28C149.72,80,150.28,80.11,150.5,80.07Z"/><path class="cls-2" d="M87,93.8c2.4-2.69,2.75-6.35,2.81-9.47s-.25-7.93-2.91-9.78c-.57-.39-1.54.84-1.51,1.33.17,2.93,1.63,5.55,2.11,8.42a15.64,15.64,0,0,1-.91,9.54C86.48,94.16,87,93.92,87,93.8Z"/><path class="cls-2" d="M147.85,30.37c4.45-4.2.92-9.77,4.2-14.37,1-1.39-1.57-.73-2.16-.08-3.79,4.21-1.43,9.82-3.06,14.5C146.66,31,147.65,30.55,147.85,30.37Z"/><path class="cls-3" d="M121.5,88.9c3.76,2.34,8.74-3.08,9.95-6.45,1-2.74,1.07-5.47,1.47-8.24a12,12,0,0,1,1.48-4.62c.73-1.2,2.09-2,2-3.37,0-.48-.71-.62-1.11-.65-5.3-.32-6.83,7.56-7,11-.2,4.12,0,11.5-6.4,12C121.84,88.57,121.32,88.78,121.5,88.9Z"/><path class="cls-3" d="M183.87,53.93s.2-.08.17-.12c-1.38-2.31-2.8-5.38-2.88-8.26,0-1.25.23-3.15,1.8-3.7s2.53.85,3.6,1.41,2.24-1.44,1.94-2.21c-1.6-4.16-7.33-1.46-8.92,2.1C177.68,47.44,181.26,51.43,183.87,53.93Z"/><path class="cls-3" d="M182.62,92.54c2-1.05,4.72-2.45,4.75-4.86,0-1.24-.71-2.21-1-3.34-.19-.82-.29-2.19.71-2.83.75-.49,1.92-.22,2.72-.33s2.86-1.64,1.75-2.27c-2.32-1.34-6.82,1.1-7.93,3.59a4.36,4.36,0,0,0,.18,3.71,10,10,0,0,1,.87,1.91c.4,1.77-1,3.08-2.49,4.1C181.66,92.57,182.3,92.7,182.62,92.54Z"/><path class="cls-3" d="M123.13,24.78a7.46,7.46,0,0,0,4.2-3.77,14.46,14.46,0,0,0,1.23-6c0-.73-.38-2.61.18-3.23s2.66-.25,3.34-.19c1.2.09,2.68-2.5,1.31-2.83a6.1,6.1,0,0,0-7.66,4.58c-.48,2.1-.11,4.16-.57,6.28a4.92,4.92,0,0,1-1.23,2.76,6.8,6.8,0,0,1-4.66.87c-.08,0-.34.19-.25.25C120.21,24.51,121.25,25.36,123.13,24.78Z"/><path class="cls-3" d="M66.7,37.31c.36-.92,1.37-1.57,2-2.33a7,7,0,0,0,1.14-1.86,5.18,5.18,0,0,0,.42-2.37,4.22,4.22,0,0,0-.73-2.14c-1.23-1.72-2.73-2.54-2-5.09s3.17-4.22,4.83-6.18c.65-.76-.24-1-.85-.62-3.63,2-7.5,6-7.16,10,.2,2.41,2.8,3.25,3.06,5.6s-2,3.36-2.13,5.44C65.25,38.37,66.56,37.67,66.7,37.31Z"/><path class="cls-3" d="M142.41,12.07c2.18.16,3.43-.24,4.48-2.48,1-2.09.69-6.62,4.26-5.35,1.17.42,1.83-1.57,1.64-2.34-.59-2.46-3.31-2.46-5.15-.42a8.88,8.88,0,0,0-1.92,3.84c-.63,2.53-.12,4.61-3.08,6.14C142.48,11.54,142.11,12,142.41,12.07Z"/><path class="cls-3" d="M86.69,53.9c1.64,1.88,5.91,3.42,6.12,6.11,0,.36.46,0,.5-.17.85-3-2.33-4.68-4.22-6.76-1.06-1.17-3.82-5-1.34-5.21,1.5-.1,3.22.91,4.76,1.15.73.11,2.21-1.31,1.25-2.13-3-2.61-8.5-2.84-9.21,1.23C84.19,50.13,85.29,52.27,86.69,53.9Z"/><path class="cls-2" d="M199,58.87c2.43-1.56,3.21-3.86,4.27-6.26,1.58-3.6,3.69-6,7.65-7.13,1.22-.37,2.68-3.26.79-3-3.24.47-6.21,3.21-8.1,5.78a20.07,20.07,0,0,0-2.35,4.21c-.77,1.82-1.1,4.16-2.62,5.68C198.15,58.7,198.19,59.4,199,58.87Z"/><path class="cls-3" d="M215.73,81.07c2.54.19,4.33-2.4,4.68-4.59.22-1.35-.47-3.57.77-4.67,1.55-1.4,3.89-.57,5.32,0,1,.4,1.67-1.79,1.46-2.36-1.21-3.25-5.61-2.26-7.88.29a7.69,7.69,0,0,0-2,4.42c-.17,2.45,1.28,4.77-2,6.34C215.9,80.54,215.44,81.06,215.73,81.07Z"/><path class="cls-1" d="M20.26,70.63c-3.3.27-5.77-3.59-7.73-7.24a42.6,42.6,0,0,1-3.08-6.93c-.69-2.14-1.78-5.84-.51-7.64.33-.48,1,.2,1.24.72.76,1.94,1,4.05,1.57,6.06a35.34,35.34,0,0,0,2.43,5.81C15,63,15.85,64.48,16.73,66s2,3.39,3.37,4.18C20.23,70.21,20.54,70.61,20.26,70.63Z"/><path class="cls-2" d="M47.26,52.8c.1.27.91-.15.89-.41-.23-2.65-3.08-3.58-3.17-6.3-.1-3,2-5.84,2.5-8.78.43-2.39-3.3-.74-4,.57a14.08,14.08,0,0,0-1.11,8.72C42.92,49.6,46.32,50.15,47.26,52.8Z"/><path class="cls-3" d="M35.77,81.63a12.45,12.45,0,0,1,3.28,2.08c.49.55,1.3,2.84-.15,3.43-.17.07-.38.32-.08.29a4.13,4.13,0,0,0,3.27-2.32c.82-2.15-.79-3.82-2.26-5-1.84-1.44-4-2.69-5.41-4.55a6.17,6.17,0,0,1-1.29-3,4.93,4.93,0,0,1,1.07-3.53.53.53,0,0,0,.12-.28.39.39,0,0,0,0-.28.39.39,0,0,0-.21-.17.51.51,0,0,0-.3,0c-4.8.87-4.81,6.61-3,9.26A13.55,13.55,0,0,0,35.77,81.63Z"/><path class="cls-2" d="M15.45,94c-1.06-3.14-4.34-3.88-6.58-5.56a19.33,19.33,0,0,1-6.24-8.38c-.49-1.2-3.21-2.27-2.52-.28a23.89,23.89,0,0,0,5.56,9,17.62,17.62,0,0,0,3.7,3c1.75,1,4.14,1.21,5.72,2.53C15.32,94.47,15.58,94.39,15.45,94Z"/><path class="cls-2" d="M202.11,91c2.57-3.47,1.93-9.79-1.52-11.62-.87-.46-1.67,1.74-1.41,2.25.82,1.6,1.9,2.81,2.28,4.67a47.11,47.11,0,0,1,.19,4.76C201.67,91.36,202,91.18,202.11,91Z"/></g></svg>