<svg id="Layer_1" data-name="Layer 1" xmlns="http://www.w3.org/2000/svg" viewBox="0 0 74 71"><defs><style>.cls-1{fill:#fff;}</style></defs><path id="download-icon" class="cls-1" d="M72.5,37.22c-4.64.33-9.26.92-13.89,1.4,0-7.52-.3-15-.35-22.56,0-2.18,0-4.37,0-6.56a1.57,1.57,0,0,0-1.53-1.59c-9.69,0-19.38.19-29.07.2-2.75,0-5.5,0-8.26,0a1.52,1.52,0,0,0-1.06.44A1.79,1.79,0,0,0,18,10.15c.28,3.91,1.75,24.28,2,27.72C13.77,38,7.66,39.13,1.48,39.79A1.52,1.52,0,0,0,1,42.73c13.11,8.72,25.77,18.14,38.39,27.53a1.52,1.52,0,0,0,2.36.32A267,267,0,0,1,62,51c2.29-2,4.57-3.91,7-5.63,2.3-1.59,5-3.56,5-6.65A1.51,1.51,0,0,0,72.5,37.22Zm-1.66,2.34v0C70.78,39.73,70.67,39.81,70.84,39.56ZM70,40.76a11.13,11.13,0,0,1-.88.8c-.09.07-.57.41-.17.14-10.42,7.47-19.6,16.54-28.43,25.81-11.36-8.73-23-17.19-34.86-25.22,3.87-.49,7.73-1,11.62-1.29q2.26-.15,4.53-.15a1.51,1.51,0,0,0,1.24-2.34c-.29-4-1.72-23.85-2-27.44,11.4.14,22.8-.16,34.21-.15-.06,9.57.2,19.15.39,28.71A1.51,1.51,0,0,0,57,41.79h0c4.44-.43,8.87-1,13.31-1.38C70.22,40.54,70.11,40.65,70,40.76ZM18.8,0h38a1.5,1.5,0,0,1,0,3h-38A1.5,1.5,0,0,1,18.8,0Z"/></svg>