<svg id="Layer_1" data-name="Layer 1" xmlns="http://www.w3.org/2000/svg" viewBox="0 0 32 32"><defs><style>.cls-1{fill:#fff;}</style></defs><path id="edit-icon" class="cls-1" d="M26.43,9.44A5.38,5.38,0,0,0,24,5.89,7.47,7.47,0,0,0,19.3,4c-5.25,3.72-8.63,9.59-12.43,14.69-.26.49-.88.88-.79,1.48l-.34,3.95-.18,2c-.14.75-.12,2.11,1,1.87h0a47,47,0,0,0,7.59-2.47A52.74,52.74,0,0,0,19.66,19c1.4-1.84,3-3.55,4.53-5.27C25.27,12.53,26.86,11.25,26.43,9.44ZM17.25,19.56a39.22,39.22,0,0,1-4,4.63,38.65,38.65,0,0,1-4.5,1.58c-.44-.42-.94-.84-1.41-1.23,0-.6.3-3.57.35-4.23,2.93-4,5.62-8.25,9-11.88a5.48,5.48,0,0,1,1.3.32,9.45,9.45,0,0,1,4.58,4.44A80.83,80.83,0,0,0,17.25,19.56Zm7.58-9Zm0,0a5.72,5.72,0,0,1-1.13,1.46A10.51,10.51,0,0,0,18,7.11c.55-.53,1.11-1,1.69-1.53l.21,0h0a6.2,6.2,0,0,1,2.82,1.32,14.74,14.74,0,0,1,1.52,1.31c-.1-.11,0,0,0,0a3.59,3.59,0,0,1,.35.64c-.06-.14,0,0,0,0A2.53,2.53,0,0,1,24.84,10.48Z"/></svg>