<svg id="Layer_1" data-name="Layer 1" xmlns="http://www.w3.org/2000/svg" viewBox="0 0 40 40"><defs><style>.cls-1{fill:#4d4bc0;}</style></defs><path id="favourite-true-icon" class="cls-1" d="M28.42,9.94A13.05,13.05,0,0,0,20,7a13.05,13.05,0,0,0-8.42,2.94A9.58,9.58,0,0,0,8,17.23C8,26,19,32.59,19.49,32.86l.51.3.51-.3C21,32.59,32,26,32,17.23A9.58,9.58,0,0,0,28.42,9.94ZM20,22.11c-4.38-3.38-6.66-5.53-5.36-7.77a2.86,2.86,0,0,1,5.21.37c.87-2.25,4.31-2.31,5.21-.75C26.36,16.21,25.68,17.89,20,22.11Z"/></svg>