<svg id="Layer_1" data-name="Layer 1" xmlns="http://www.w3.org/2000/svg" viewBox="0 0 40 40"><defs><style>.cls-1{fill:#4d4bc0;}</style></defs><path id="favourite-icon-false" class="cls-1" d="M25.9,7.47h0Zm1.86,19.82.06-.09Zm6.45-10.94c.06,6.73-4.11,12.59-8.92,16.93a25,25,0,0,1-2.84,2.32,1.32,1.32,0,0,1-1.52.21l.08,0A4.67,4.67,0,0,1,19.44,35c-1.1-.66-2.18-1.37-3.23-2.1a33.37,33.37,0,0,1-7.54-7C4.35,20.67,4,13.42,8.47,8.13,10.34,6,13.18,5,15.92,4.5,24.21,2.6,34.48,6.64,34.21,16.35ZM13.05,7.66h0C12.89,7.73,13,7.69,13.05,7.66ZM7.63,18.3v0Zm24.23-2.94c0-.38-.07-.77-.12-1.14a9.29,9.29,0,0,0-.55-2l.06.17a7.55,7.55,0,0,0-1-1.73l0,0A10.65,10.65,0,0,0,28.5,8.94c.13.1.15.12.13.11a12,12,0,0,0-2.76-1.59h0a16.84,16.84,0,0,0-3.82-1,16.65,16.65,0,0,0-4.46.09h.05a20.13,20.13,0,0,0-4.58,1.1A9.8,9.8,0,0,0,11,8.89a11.14,11.14,0,0,0-3.36,9.27,12.13,12.13,0,0,0,.84,3.05c1.22,2.92,4.45,6.36,7.34,8.55l-.07-.05c1.79,1.41,3.77,2.61,5.67,3.85a39,39,0,0,0,6.36-6.27l.07-.09h0C30.51,23.72,32.23,19.58,31.86,15.36Zm-1.6-4.69h0C30.21,10.59,30.08,10.45,30.26,10.67ZM25,13.22Zm2.34-.85c1.67,2.86-.43,6.21-2.75,8a31.51,31.51,0,0,1-3.77,2.84,1,1,0,0,1-.81.13,1.12,1.12,0,0,1-.82-.13c-2.61-1.81-5.62-3.68-6.86-6.75C10.5,11.13,16.49,8.64,20,12.34,21.89,10.21,25.69,9.82,27.35,12.37ZM25.6,14.08c0,.17,0,.18,0,.05a1.85,1.85,0,0,0-.12-.4l0,.07a1.44,1.44,0,0,0-.49-.58l.13.08a2,2,0,0,0-.9-.41s-.11,0-.13,0h0a5.82,5.82,0,0,0-.6,0l.14,0c-.05,0-.31.06-.38.08s-.38.06-.46.15c.15-.07.17-.07.05,0a4,4,0,0,0-1.62,1.33,2.41,2.41,0,0,1-.67.81A1.15,1.15,0,0,1,19,14.73a4,4,0,0,0-1.91-1.68l.05,0a2.8,2.8,0,0,0-.84-.21c.18,0,.2,0,.07,0H16a1.83,1.83,0,0,0-1.5.72l0,0a2.1,2.1,0,0,0-.19,1.54c0-.12,0-.14,0-.12l.1.42a4.34,4.34,0,0,0,.14.48s.12.25,0,.08c.55,1.3,2.32,2.74,3.61,3.77h0c.58.44,1.17.86,1.79,1.26.52-.35,1-.71,1.55-1.09,0,0,.36-.25.12-.09C23.44,18.34,25.86,16.65,25.6,14.08Zm-.1-.28c0,.16,0,.08,0,0Zm-1.26-.91-.1,0C24.19,12.9,24.24,12.9,24.24,12.89Zm-9.62.61-.06.07C14.67,13.46,14.66,13.46,14.62,13.5Z"/></svg>