<svg id="Layer_1" data-name="Layer 1" xmlns="http://www.w3.org/2000/svg" viewBox="0 0 40 40"><defs><style>.cls-1{fill:none;stroke:#4d4bc0;stroke-linecap:round;stroke-linejoin:round;stroke-width:2px;}</style></defs><path id="favourite-false-icon" class="cls-1" d="M31,17.23C31,25.54,20,32,20,32S9,25.54,9,17.23a8.56,8.56,0,0,1,3.22-6.53A12.15,12.15,0,0,1,20,8a12.15,12.15,0,0,1,7.78,2.7A8.56,8.56,0,0,1,31,17.23ZM20,22.11c5.68-4.22,6.36-5.9,5.06-8.15-.9-1.56-4.34-1.5-5.21.75a2.86,2.86,0,0,0-5.21-.37C13.34,16.58,15.62,18.73,20,22.11Z"/></svg>