<svg id="Layer_1" data-name="Layer 1" xmlns="http://www.w3.org/2000/svg" viewBox="0 0 40 40"><defs><style>.cls-1{fill:#4d4bc0;}</style></defs><path id="favourite-icon-true" class="cls-1" d="M35,13.26C33.81,4.8,23.59,1.78,16.23,3.43c-2.9.49-5.89,1.42-8,3.63A14.27,14.27,0,0,0,5.72,21.62,17.14,17.14,0,0,0,8.5,26.29a46.22,46.22,0,0,0,10.72,9c.79.51,1.57,1,2.31,1.53a.69.69,0,0,0,1-.15C29.6,31.14,36.6,22.89,35,13.26ZM20.55,22a1.13,1.13,0,0,1-.92-.28,35,35,0,0,1-3.51-2.68C14.5,17.74,13,16,13,13.75a2.59,2.59,0,0,1,1.27-2.35c2.13-1.3,4.71.32,5.81,2.21a.33.33,0,0,0,.56,0c3.17-5.19,9.62-2.12,5.85,3.4A24.92,24.92,0,0,1,20.55,22Z"/></svg>