<svg id="Layer_1" data-name="Layer 1" xmlns="http://www.w3.org/2000/svg" viewBox="0 0 40 40"><defs><style>.cls-1{fill:none;stroke:#4d4bc0;stroke-linecap:round;stroke-linejoin:round;stroke-width:2px;}</style></defs><path id="filter-icon" class="cls-1" d="M12,32H2m36,0H20m4-12H2m36,0H32M7,8H2M38,8H15M11,4A4,4,0,1,1,7,8,4,4,0,0,1,11,4ZM28,16a4,4,0,1,1-4,4A4,4,0,0,1,28,16ZM16,28a4,4,0,1,1-4,4A4,4,0,0,1,16,28ZM11,3.35A4.05,4.05,0,1,1,7,7.4,4,4,0,0,1,11,3.35ZM27.2,16A4.05,4.05,0,1,1,23.15,20,4,4,0,0,1,27.2,16ZM16.4,28.55a4.05,4.05,0,1,1-4,4.05A4,4,0,0,1,16.4,28.55Z"/></svg>