<svg id="Layer_1" data-name="Layer 1" xmlns="http://www.w3.org/2000/svg" viewBox="0 0 40 40"><defs><style>.cls-1{fill:#4d4bc0;}</style></defs><path id="filter-icon" class="cls-1" d="M1.07,11.07C2.7,10.94,4.36,11,6,10.78c.8,4.38,8.06,4.26,8.57-.26,8.12-.14,16.25,0,24.38-.21A1.13,1.13,0,0,0,40,9.14,1.15,1.15,0,0,0,38.93,8c-8.19.18-16.39.07-24.59.22A4.28,4.28,0,0,0,6,8.53c-1.63,0-3.29.14-4.92.19a1.18,1.18,0,0,0,0,2.35ZM8.19,8.72A2.36,2.36,0,0,1,11,7.22c-.06-.06.09,0,.12,0h0a3.51,3.51,0,0,1,1.26,1.63,2.81,2.81,0,0,1,.13,1c0,.05,0,.3,0,.13V10a2.51,2.51,0,0,1-.15.6l0,0s-.07.17-.06.1a2,2,0,0,1-.25.45h0l0,.06c0,.07,0,0,0,0a1.36,1.36,0,0,1-.37.35l0,0c.12,0,0,0-.07,0l-.2.11h0a2.38,2.38,0,0,1-.54.14c.1,0-.09,0-.11,0h0a5,5,0,0,1-.77,0c.05,0-.11,0-.13,0h0C8.28,11.71,7.71,10.17,8.19,8.72ZM39.68,20.11c-.73-.66-1.86-.27-2.76-.42-.6-2.22-3.05-4.13-5.34-3.58a5,5,0,0,0-3,3.33c-9.16-.28-18.32-.27-27.46.2a1.18,1.18,0,0,0,0,2.35c9.1-.46,18.22-.49,27.33-.2,1,4,7.4,4.45,8.49.24.91-.09,2,.42,2.8-.27A1.26,1.26,0,0,0,39.68,20.11Zm-6-1.17c-.15-.12,0,0,0,0Zm0,0Zm.83,2.63c-.66,1.46-2.44,1.24-3.49.36.14.1.15.1.11.07a1.43,1.43,0,0,1-.61-1.33c.15-.92.84-2.3,1.86-2.32,1.35.2,2.73,1.69,2.17,3.13a.33.33,0,0,1,0-.06A1,1,0,0,0,34.6,21.6Zm.17-.59v0Zm3.55,9.51c-4.66-.33-9.32-.68-14-.66-.59-5.67-8.58-5.93-8.88,0-4.79,0-9.6-.08-14.38.39a1.18,1.18,0,0,0,0,2.35c4.91-.49,9.84-.33,14.76-.39,1.37,3.57,7.08,3.82,8.24,0,4.76,0,9.51.32,14.25.65A1.18,1.18,0,0,0,38.32,30.52Zm-16.08.25a.44.44,0,0,1,0-.09S22.25,30.77,22.24,30.77Zm-.13-1.29,0-.07Zm-.27,2.39v0C21.87,31.84,21.92,31.78,21.84,31.87Zm.23-.47c-.77,2.16-4.34,1.34-4.5-.83v.05c0-.05,0-.11,0-.15a5.23,5.23,0,0,1,0-.56v0s0-.14,0-.15A2.59,2.59,0,0,1,18,28.67s0,0,0,0a2.22,2.22,0,0,1,2.74-.7,2.57,2.57,0,0,1,1.55,2.18s0,0,0,0A3.33,3.33,0,0,1,22.07,31.4ZM10.81,11.83a.19.19,0,0,1,.1,0l-.08,0Zm1.54-1.24s0,0,0,.08A.15.15,0,0,1,12.35,10.59ZM11.1,7.25a.15.15,0,0,1-.1,0l.08,0Zm.32,4.41,0,0C11.27,11.74,11.35,11.66,11.42,11.66Zm.64-.54-.05.06Zm-2,.69H9.92A.16.16,0,0,1,10,11.81Zm1.6-.28ZM32,22.47l-.12-.06S31.78,22.37,32,22.47Zm2.69-1c0,.09-.1.19,0,0Zm-12.4,8.56a.19.19,0,0,1,0,.08C22.22,30.05,22.23,30,22.24,30.07Zm-4.67.5a.41.41,0,0,1,0-.1A.45.45,0,0,1,17.57,30.57Zm3.48,1.93c.26-.17.1,0,0,0Zm-3.49-2.59c0-.05,0-.09,0-.13S17.6,29.82,17.56,29.91ZM18,28.67l.07-.09S18.08,28.59,18,28.67Z"/></svg>