<svg id="Layer_1" data-name="Layer 1" xmlns="http://www.w3.org/2000/svg" viewBox="0 0 90 70"><defs><style>.cls-1{fill:#f8bb84;}</style></defs><path id="hotspots-icon" class="cls-1" d="M51.34,14.72c-5.69-3.17-13.8-.09-15.22,6.33-2.4,9,9.44,14.21,16,8.88C57.26,26.22,57,17.73,51.34,14.72ZM51,17c.1.06,0,0,0,0Zm2.55,4.46v-.05a8.35,8.35,0,0,1,0,2.06,8.42,8.42,0,0,1-.57,2,7.84,7.84,0,0,1-4.17,3.9h.05a8.39,8.39,0,0,1-4.34.58h.15a8.73,8.73,0,0,1-2.11-.54l0,0,0,0h0l-.1-.05a9.38,9.38,0,0,1-1.81-1h0a6.86,6.86,0,0,1-2.28-2.81,6.64,6.64,0,0,1-.33-3.1,1.67,1.67,0,0,0,0-.21,7.9,7.9,0,0,1,4.76-6.08h0c.1,0,.14,0,.14-.05a9.2,9.2,0,0,1,4.46-.5,10.35,10.35,0,0,1,2,.5h0a6.56,6.56,0,0,1,4.16,5.29.1.1,0,0,1,0,0A.25.25,0,0,0,53.59,21.5ZM83,32.19a15,15,0,0,0-2.52-7.7A15.45,15.45,0,0,0,68.06,19.4c-1-9.84-10-17.12-19.71-17.83C37.91.69,27.52,8,24.61,17.87,17.49,16.19,9.87,21.22,7.75,28,4.58,39.33,12,50.59,19.7,58.43c.65.65,1.67,1.86,2.59,1a66.84,66.84,0,0,0,7.76-10.54A74.21,74.21,0,0,0,45.37,68.2a1.15,1.15,0,0,0,1.55,0A115.7,115.7,0,0,0,59.59,50.73a51.35,51.35,0,0,0,8.54,10.41,1.18,1.18,0,0,0,1.6,0C76.73,53.11,83.53,43.29,83,32.19Zm-14.9-3.26a5.83,5.83,0,0,1,1.56,0c.08,0,.3.05,0,0,5.64.82,4.14,8.53-1.49,8,0,0,0,0-.11,0h0a5.15,5.15,0,0,1-1.94-.74A56.82,56.82,0,0,0,67.78,29ZM23,34.85l-.06,0,.05,0C20.28,36,16.36,34,17,30.8v.08a4.5,4.5,0,0,1,3.84-3.77,5.87,5.87,0,0,1,1.26,0s.31,0,.12,0h.05a5.84,5.84,0,0,1,1.16.31,32.88,32.88,0,0,0,.73,6.78l-.07.06a6.94,6.94,0,0,1-1,.56l-.09,0Zm5.85,11.67h0a54,54,0,0,1-7.39,10.57C13.75,49.66,4.59,35.26,11.72,25a3,3,0,0,1,.2-.25,14.22,14.22,0,0,1,5.56-4.2l.09,0h0l0,0h0a10.89,10.89,0,0,1,5.51-.76c.34.05.68.12,1,.2a32.93,32.93,0,0,0-.67,5.32c-4.18-1.26-8.9,2-8.69,6.44.12,4.69,6.21,7,9.93,4.68a59.55,59.55,0,0,0,4.17,10.17ZM52.94,57.07c-2.15,3-4.46,6-6.88,8.81a71.38,71.38,0,0,1-16.18-22.1,45.35,45.35,0,0,1-4-12.09,30.41,30.41,0,0,1,1.71-15.55,21.6,21.6,0,0,1,2.81-4.56,23,23,0,0,1,4.06-3.84,21.79,21.79,0,0,1,9.8-4c6.24-1,14.16,2.19,18,7.16C72.12,23.48,61,45.86,52.94,57.07ZM80.67,36.26l-.06.47A35.16,35.16,0,0,1,78.16,45c0-.05-.09.19,0,0a58.14,58.14,0,0,1-7.6,11.87c-.52.66-1.1,1.33-1.66,2A51.09,51.09,0,0,1,65,54.59a46.11,46.11,0,0,1-4.14-6,70.92,70.92,0,0,0,4.58-10.33c4,2.33,10-.55,10-5.36.2-3.83-3.58-6.67-7.25-6.05a30.54,30.54,0,0,0,.18-5.32,12.83,12.83,0,0,1,5.57.9h0s.17.06.1.05a14,14,0,0,1,2.93,1.63A19.15,19.15,0,0,1,79,26.15a8.35,8.35,0,0,1,.56,1.12A17.68,17.68,0,0,1,80.67,36.26Z"/></svg>