<svg id="Layer_1" data-name="Layer 1" xmlns="http://www.w3.org/2000/svg" viewBox="0 0 90 70"><defs><style>.cls-1{fill:#f8bb84;}</style></defs><path id="leaderboard-icon" class="cls-1" d="M52.9,48.87a.51.51,0,0,0,0-.09h0A.19.19,0,0,1,52.9,48.87Zm.08.37c0-.05,0-.09,0-.14C53,49.22,53,49.25,53,49.24ZM73.5,67.31a1.16,1.16,0,0,1-1.15,1.16c-4,0-7.93,0-11.9,0-14.15,0-28.24-.07-42.37-.5h0a1.32,1.32,0,0,1-1.24-1.26,74.33,74.33,0,0,1-.58-10.44,1.14,1.14,0,0,1,.85-1.09,1.07,1.07,0,0,1,1-.57l3.7,0,12.7-.07c.08-2.4-.32-4.91.08-7.26a1.17,1.17,0,0,1,1.14-1c1,.08,2.07.13,3.1.18.24-2,.75-3.92.85-5.92.28-3.91.89-7.89.41-11.81v.08c-.73-4.62-2.93-9-5.45-12.85C32,12.45,28.41,9.63,25.52,6.3A1.28,1.28,0,0,1,26,4.82a1.15,1.15,0,0,1,1.63,0c.69.85,1.41,1.67,2.14,2.49,2.59,2.52,5.6,5.81,8.17,7.73a14.87,14.87,0,0,0,3,1.84l.13.05a22.1,22.1,0,0,1,6.22-1.65,16.48,16.48,0,0,0,1.71-1.15h0c4.18-3.5,7.31-8,11-12a1.16,1.16,0,0,1,1.64,1.63c-3.18,3.81-6.84,7.37-8.73,12a36.86,36.86,0,0,0-1.95,6.47l-.3,4s0,.08,0,.12c-.09,6.69-.19,13.4.06,20.09,1.67-.13,3.87-.38,4.45,1.66.5,3.26.29,6.64.48,9.94l15,.36c1,0,2.22-.15,2.85.81a2.52,2.52,0,0,1,.3,1.4,52.43,52.43,0,0,1-.26,6.26C73.42,67.06,73.5,67.18,73.5,67.31ZM52.72,48.71h0ZM41.49,46.6c2.27.08,4.55.08,6.82,0a35.85,35.85,0,0,0-1.82-11.41l0,.08a3.76,3.76,0,0,0-.36-.61l0,.06a2.26,2.26,0,0,0-.26-.29,3.58,3.58,0,0,0-1.72.86c-1.57,3.32-2.1,7-2.64,10.64.05-.31,0,0,0,0s0,.36-.07.54h0S41.49,46.57,41.49,46.6Zm-.58-29.71a.23.23,0,0,0,.09,0h0ZM34.87,66q-.23-4.59-.33-9.18l-16,.09A73.23,73.23,0,0,0,19,65.71C24.32,65.86,29.59,66,34.87,66Zm18.57.13c-.08-5.64-.21-11.3-.46-16.93,0,0,0-.13,0-.17a0,0,0,0,0,0,0,1,1,0,0,0-.06-.23c0,.05,0-.07,0-.11v0a152.5,152.5,0,0,1-16.14-.07c0,5.78.17,11.58.45,17.36C42.61,66.13,48,66.18,53.44,66.17Zm17.79,0a47.83,47.83,0,0,0,.19-5.35l-15.77-.37c0,1.91.08,3.83.11,5.74Q63.49,66.17,71.23,66.15ZM39.59,8.49a4.33,4.33,0,0,1,0-3.61c3.22-6.56,10.74-2.65,8.86,3.85-.55,2.08-1.84,3.83-2.86,5.68a1.14,1.14,0,0,1-.72.53,1.13,1.13,0,0,1-1.47-.1A25.65,25.65,0,0,1,39.59,8.49ZM44.37,4.4c-.41-.15-.78.23-1,.51l0,0a4,4,0,0,0-.37.6s0,0,0,0-.06.13,0,.15c0,.18-.12.35-.15.53V6.06a1.26,1.26,0,0,0,1.1,1.37c.15,0,.34,0,.48,0a2.12,2.12,0,0,0,.69-.34l.16-.16c.71-.67.17-1.73-.45-2.26,0,0-.09-.07-.11-.09h0l-.23-.14c.1,0-.08,0-.1,0Zm1,2.41h0C45.28,6.86,45.25,6.92,45.32,6.81ZM44.09,4.36h0Zm2.07,30.3h0C46.11,34.59,46,34.49,46.16,34.66Zm.36.61c0,.18,0,.1,0,0ZM44.4,4.4h0a.19.19,0,0,0,.08,0ZM42.8,6.11a.49.49,0,0,0,0,.12S42.8,6.22,42.8,6.11Zm2-1.46-.1-.08C44.74,4.64,44.77,4.66,44.78,4.65ZM43,5.47s0,.07,0,.11S43,5.55,43,5.47Zm.35-.56,0,0C43.24,5,43.27,5,43.34,4.91Z"/></svg>