<svg id="Layer_1" data-name="Layer 1" xmlns="http://www.w3.org/2000/svg" viewBox="0 0 40 40"><defs><style>.cls-1{fill:#4d4bc0;}</style></defs><path id="logout-icon" class="cls-1" d="M23.05,26.6a1.54,1.54,0,0,0-2.44-1c-1.22.88-1.1,2.47-1.17,3.78-.08.91-.14,1.82-.2,2.73-3.57,0-7.14,0-10.71.21Q8.89,19.66,10.31,7c3.51,0,7,.12,10.51.45.25,2.27-.65,4.65-.06,6.86a1.59,1.59,0,0,0,1.93,1,2,2,0,0,0,1.18-1.79c-.09-2.92.42-5.83.49-8.74a1.08,1.08,0,0,0-1-.79,5.09,5.09,0,0,1-.78,0h0l-11.14.22-3.13.07c-.12,0-.22,0-.34,0a.93.93,0,0,0-1,.83H7a265.42,265.42,0,0,0-1.47,29l0,.83A1.13,1.13,0,0,0,6.74,36c1-.17,6.83-.67,8-.77q3.28.1,6.56.05h0a1,1,0,0,0,.75-.34.85.85,0,0,0,.58-1C22.57,31.51,23.48,29.06,23.05,26.6ZM21.26,27h0Zm0,0ZM34.18,20c-2.48-1.27-5-2.43-7.54-3.67a.61.61,0,0,0-.46,0c-1.11.25-.69,1.69-.9,2.51h-9c-.94,0-2.28-.07-3.21,0A1.79,1.79,0,0,0,11.6,20a2.49,2.49,0,0,0,.09,1.38,1,1,0,0,0,1.2.75l8.31-.06.12,0,3.62.18c0,.74-.41,1.62.07,2.26s1,.27,1.46.05h0l5.11-2.34,1.32-.55C33.64,21.35,35.16,21,34.18,20Zm-22,1.8a.39.39,0,0,0,.1.08A.39.39,0,0,1,12.13,21.83Zm.22.13s.07,0,.09,0h0Z"/></svg>