<svg id="Layer_1" data-name="Layer 1" xmlns="http://www.w3.org/2000/svg" viewBox="0 0 90 70"><defs><style>.cls-1{fill:#f8bb84;}</style></defs><path id="map-icon" class="cls-1" d="M89.75,60.65C87.26,43.56,85.8,26.24,84.2,9c-.12-1.6-.41-3.19-.6-4.78a4.49,4.49,0,0,1,.07-1.55,1.3,1.3,0,0,0-.92-1.18c-9.35.91-19,2.14-28.21,3.72C46.43,3.2,38.17,1.62,30,0c-3.13.56-6.4,1-9.59,1.46-4.75.86-9.52,1.65-14.24,2.71a1.17,1.17,0,0,0-.74,1.68c-.83,4.82-1.25,10.46-1.83,15.36a.84.84,0,0,0,.1.49C2.56,36.11,1.15,54.18,0,68.65A1.48,1.48,0,0,0,1.74,70h0q13.05-2.47,26.05-5.31c2.88.91,8,1.42,11.06,1.94l7.08,1.06a1,1,0,0,0,.86.13l4.51.68c.29,0,7.79,1.26,7.78,1.06h0c7.12-1,14.26-1.62,21.39-2.53,2.11-.26,4.23-.55,6.34-.84a1.25,1.25,0,0,0,.52-.33l1.72-.47A1.27,1.27,0,0,0,90,64.18,12,12,0,0,0,89.75,60.65Zm-33.93-15c-1.71-.33-3.41-.68-5.12-1,.06-.41.11-.82.17-1.23q1.38-9.9,2.86-19.77L54.9,24C55,31.19,55.42,38.43,55.82,45.66Zm-1-29.6c0,1.79,0,3.59,0,5.38l-.8-.23C54.33,19.49,54.6,17.78,54.86,16.06ZM31.13,2.7c2.75.51,5.49,1,8.23,1.59,4.81,1,9.62,2,14.4,3.2-.67,4.35-1.31,8.71-2,13.07a205.19,205.19,0,0,1-20.58-7.29,1.21,1.21,0,0,0-.58-.73Q30.88,7.62,31.13,2.7Zm-.64,12.83a190.8,190.8,0,0,0,21,7.42C50.36,30,49.36,37,48.38,44.08c-1.38-.3-2.76-.61-4.12-1a17.6,17.6,0,0,0,2.39-3.7C48,36.52,49.19,33.23,48.48,30c-.63-2.72-3.18-5.18-6.08-5-3.11.32-5.58,3-6.36,5.95-1.15,4.18,1.29,8.25,4.19,11.11q-5.44-1.44-10.79-3.17Q29.91,27.22,30.49,15.53Zm9.89,23.14a13.47,13.47,0,0,1-1.59-2.62,11,11,0,0,1-.59-2l0,.08c-.48-2.86,1.61-6.59,4.73-6.66,2.64.39,3.68,3.4,3.25,5.76a18.8,18.8,0,0,1-3.46,8A29.56,29.56,0,0,1,40.38,38.67ZM6.45,17.55c.23-2.47.55-6,.83-8,.14-1.09.32-2.17.5-3.25Q13.84,5,20,4c1.24,3.33,2.39,6.7,3.39,10.11l-4.53,1.19a6.68,6.68,0,0,0-8.36,2c-1.39.43-2.78.88-4.16,1.33a9.48,9.48,0,0,1,.15-1.05Zm5.73,6.73a12.21,12.21,0,0,1-.62-2.2,6.94,6.94,0,0,1,0-1.44c0-.14,0-.11,0,.07a4.72,4.72,0,0,1,.32-1.17,5.45,5.45,0,0,1,.53-.9v0a6.32,6.32,0,0,1,.69-.68.32.32,0,0,0,.1-.09h0l0,0,0,0a6.5,6.5,0,0,1,.68-.42l.28-.14h0c.19-.05.17-.05.11,0A4.68,4.68,0,0,1,16.38,17a4.13,4.13,0,0,1,1.91.82l-.06,0a3.17,3.17,0,0,1,1.19,2,4.5,4.5,0,0,1,0,.82,23,23,0,0,1-3.9,8.75,28,28,0,0,1-3.36-5.16C12.18,24.27,12.18,24.3,12.18,24.28Zm6.64-5.93,0,0C18.81,18.34,18.72,18.21,18.82,18.35ZM11.59,65.58c-3,.62-6,1.23-9.08,1.8.13-1.7,1.49-18.92,1.58-20,2.83-1,5.7-1.92,8.6-2.74A95.12,95.12,0,0,0,11.59,65.58Zm14.69-3.14-.06.09c-3,.66-6.09,1.31-9.13,1.94L14,65.1a95.43,95.43,0,0,1,.68-17.8c0-.45.36-2.41.52-3.36C19.06,42.91,23,42,27,41.37Q26.53,51.92,26.28,62.44ZM27,38.92a142.34,142.34,0,0,0-19.1,4.59c-1.22.39-2.43.81-3.65,1.23C4.75,39,5.7,26.87,6.15,21.17l3.06-1C8.52,24.83,12,28.4,14.42,31.92a1.21,1.21,0,0,0,1.64.43C18.81,29.43,23.72,21,21,17.21L24,16.4c1.25,4,2.13,8.09,3.45,12C27.32,31.93,27.17,35.43,27,38.92ZM27.83,21c-.48-1.73-.95-3.46-1.47-5.18l1.75-.46C28,17.22,27.92,19.1,27.83,21Zm-2.15-7.49c-1-3.33-2.07-6.63-3.31-9.88,1.37-.22,2.88-.45,4.26-.65l.87-.12.18,0,1.05-.14c-.17,3.38-.33,6.76-.5,10.14ZM45.54,65.18,34.06,63.46a39.17,39.17,0,0,1-5.37-1q.24-10.52.66-21c6.15,2,12.41,3.66,18.7,5.06Q46.75,55.82,45.54,65.18Zm2.36.36c.83-6.4,1.6-12.24,2.47-18.54,1.86.4,3.72.77,5.59,1.13.35,6.25.7,12.5.94,18.76Zm9.59-58a60.6,60.6,0,0,1,9.82-1.8l.15,0h-.08C72,5.07,76.57,4.51,81.18,4c.71,5.31,1.08,10.66,1.61,16l-10,.6h-.2c2.86-3.38,5.91-8,4.12-12.58A4.75,4.75,0,0,0,74,5.29c-3.94-1.14-8,2.5-8.17,6.42-.15,3.42,2,6.55,4.25,8.89,0,.06,0,.12.07.17l-12.87.79C57.19,16.87,57.28,12.18,57.49,7.5ZM71.77,17.86l-.48.61a17.85,17.85,0,0,1-2.53-3.86,6.34,6.34,0,0,1-.51-3.25A4.84,4.84,0,0,1,70,8.42a5.49,5.49,0,0,1,1.15-.67L71,7.82a3.79,3.79,0,0,1,1.83-.35h0a2.7,2.7,0,0,1,.43.11,3,3,0,0,1,1.48,2.29c.41,3-1.24,5.69-3,7.94C71.94,17.66,71.85,17.77,71.77,17.86ZM57.32,24,83,22.39c.61,6.59,1.31,13.16,2,19.73q-4.19.52-8.36,1.14c-2.39-3.71-8.11-2.6-9.92,1.08-2.86.32-5.7.92-8.53,1.45C57.82,38.52,57.46,31.24,57.32,24ZM69.14,45l.07-.11h0v0a5.08,5.08,0,0,1,.7-.69l-.06,0a4.59,4.59,0,0,1,1.86-.86c.12,0,.46,0,.08,0a6.47,6.47,0,0,1,.88,0h0c2.44.42,3.17,3.35,2.81,5.48a21.4,21.4,0,0,1-2.78,7.3C69.83,53.44,66.61,48.85,69.14,45Zm6.06.47h0C75.27,45.6,75.23,45.52,75.2,45.46ZM85.56,63.91l-2.18.3c-8,1.06-16.06,1.83-24.07,2.88-.23-6.3-.59-12.59-.94-18.89q3.77-.75,7.58-1.35c-.7,4.83,2.71,8.84,6,11.88a1.83,1.83,0,0,0,2.28-.47,26.32,26.32,0,0,0,2.15-4.15c1.11-2.68,2-5.7,1.3-8.59q2.22-.33,4.44-.63l3.14-.4C86,50.75,86.76,57,87.58,63.25A10,10,0,0,0,85.56,63.91ZM42.8,34.1a1.56,1.56,0,0,1-2.26-1.21c-.94-2.12,2.54-3.26,3.21-1.1A2.19,2.19,0,0,1,42.8,34.1ZM73,11a1.65,1.65,0,0,1-2.92,1.41,1.2,1.2,0,0,1,0-1.69.38.38,0,0,0,.15-.2,1.45,1.45,0,0,1,.42-.4A1.49,1.49,0,0,1,73,11ZM12.33,18.76l.06-.09C12.31,18.81,12.3,18.81,12.33,18.76Zm5.9-1c-.13-.06-.07-.05,0,0Zm-4,4.6a1.36,1.36,0,0,1-.51-.5,1.53,1.53,0,0,1-.14-.34c0-.06-.07-.11-.07-.19a1.69,1.69,0,0,1,1.13-2,1.64,1.64,0,0,1,2,1.18A1.67,1.67,0,0,1,14.28,22.37ZM69.91,44.19Zm2.63,4.62A2.08,2.08,0,0,0,73,47a1.51,1.51,0,0,0-.67-.86,1.91,1.91,0,0,0-.7-.18,1.58,1.58,0,1,0,.94,2.82Zm-.21-1.46s0,.26,0,.27a.8.8,0,0,0,0-.27Z"/></svg>