<svg id="Layer_1" data-name="Layer 1" xmlns="http://www.w3.org/2000/svg" viewBox="0 0 60 60"><defs><style>.cls-1{fill:#fff;opacity:0.8;}.cls-1,.cls-2{fill-rule:evenodd;}.cls-2{fill:none;stroke:#fff;stroke-linecap:round;stroke-linejoin:round;stroke-width:2px;}</style></defs><g id="pin-white"><path id="pin-fill" class="cls-1" d="M30,52S47,40.15,47,24.92a17,17,0,0,0-34,0C13,40.15,30,52,30,52Zm6.8-27A6.8,6.8,0,1,1,30,18.2,6.79,6.79,0,0,1,36.8,25Z"/><path id="pin-stroke" class="cls-2" d="M30,52S47,40.15,47,24.92a17,17,0,0,0-34,0C13,40.15,30,52,30,52Zm6.8-27A6.8,6.8,0,1,1,30,18.2,6.79,6.79,0,0,1,36.8,25Z"/></g></svg>