<svg id="Layer_1" data-name="Layer 1" xmlns="http://www.w3.org/2000/svg" viewBox="0 0 72 72"><defs><style>.cls-1{fill:#f88484;opacity:0.5;}.cls-1,.cls-2{fill-rule:evenodd;}.cls-2{fill:none;stroke:#f88484;stroke-linecap:round;stroke-linejoin:round;stroke-width:2px;}</style></defs><g id="rating-03-icon"><g id="pin-red"><path id="pin-fill" class="cls-1" d="M36,60S53,48.15,53,32.92a17,17,0,0,0-34,0C19,48.15,36,60,36,60Zm6.8-27A6.8,6.8,0,1,1,36,26.2,6.79,6.79,0,0,1,42.8,33Z"/><path id="pin-stroke" class="cls-2" d="M36,60S53,48.15,53,32.92a17,17,0,0,0-34,0C19,48.15,36,60,36,60Zm6.8-27A6.8,6.8,0,1,1,36,26.2,6.79,6.79,0,0,1,42.8,33Z"/></g><g id="pin-red-2" data-name="pin-red"><path id="pin-fill-2" data-name="pin-fill" class="cls-1" d="M11,26s8.5-5.92,8.5-13.54a8.5,8.5,0,0,0-17,0C2.5,20.08,11,26,11,26Zm3.4-13.5A3.4,3.4,0,1,1,11,9.1,3.4,3.4,0,0,1,14.4,12.5Z"/><path id="pin-stroke-2" data-name="pin-stroke" class="cls-2" d="M11,26s8.5-5.92,8.5-13.54a8.5,8.5,0,0,0-17,0C2.5,20.08,11,26,11,26Zm3.4-13.5A3.4,3.4,0,1,1,11,9.1,3.4,3.4,0,0,1,14.4,12.5Z"/></g><g id="pin-red-3" data-name="pin-red"><path id="pin-fill-3" data-name="pin-fill" class="cls-1" d="M61,26s8.5-5.92,8.5-13.54a8.5,8.5,0,0,0-17,0C52.5,20.08,61,26,61,26Zm3.4-13.5A3.4,3.4,0,1,1,61,9.1,3.4,3.4,0,0,1,64.4,12.5Z"/><path id="pin-stroke-3" data-name="pin-stroke" class="cls-2" d="M61,26s8.5-5.92,8.5-13.54a8.5,8.5,0,0,0-17,0C52.5,20.08,61,26,61,26Zm3.4-13.5A3.4,3.4,0,1,1,61,9.1,3.4,3.4,0,0,1,64.4,12.5Z"/></g><g id="pin-red-4" data-name="pin-red"><path id="pin-fill-4" data-name="pin-fill" class="cls-1" d="M11,68s8.5-5.92,8.5-13.54a8.5,8.5,0,0,0-17,0C2.5,62.08,11,68,11,68Zm3.4-13.5A3.4,3.4,0,1,1,11,51.1,3.4,3.4,0,0,1,14.4,54.5Z"/><path id="pin-stroke-4" data-name="pin-stroke" class="cls-2" d="M11,68s8.5-5.92,8.5-13.54a8.5,8.5,0,0,0-17,0C2.5,62.08,11,68,11,68Zm3.4-13.5A3.4,3.4,0,1,1,11,51.1,3.4,3.4,0,0,1,14.4,54.5Z"/></g><g id="pin-red-5" data-name="pin-red"><path id="pin-fill-5" data-name="pin-fill" class="cls-1" d="M61,68s8.5-5.92,8.5-13.54a8.5,8.5,0,0,0-17,0C52.5,62.08,61,68,61,68Zm3.4-13.5A3.4,3.4,0,1,1,61,51.1,3.4,3.4,0,0,1,64.4,54.5Z"/><path id="pin-stroke-5" data-name="pin-stroke" class="cls-2" d="M61,68s8.5-5.92,8.5-13.54a8.5,8.5,0,0,0-17,0C52.5,62.08,61,68,61,68Zm3.4-13.5A3.4,3.4,0,1,1,61,51.1,3.4,3.4,0,0,1,64.4,54.5Z"/></g></g></svg>