<svg id="Layer_1" data-name="Layer 1" xmlns="http://www.w3.org/2000/svg" viewBox="0 0 72 72"><defs><style>.cls-1{fill:#70c04b;opacity:0.5;}.cls-1,.cls-2{fill-rule:evenodd;}.cls-2{fill:none;stroke:#70c04b;stroke-linecap:round;stroke-linejoin:round;stroke-width:2px;}</style></defs><g id="rating-01-icon"><path id="pin-fill" class="cls-1" d="M36,69S61.5,51.23,61.5,28.38a25.5,25.5,0,0,0-51,0C10.5,51.23,36,69,36,69ZM46.2,28.5A10.2,10.2,0,1,1,36,18.3,10.2,10.2,0,0,1,46.2,28.5Z"/><path id="pin-stroke" class="cls-2" d="M36,69S61.5,51.23,61.5,28.38a25.5,25.5,0,0,0-51,0C10.5,51.23,36,69,36,69ZM46.2,28.5A10.2,10.2,0,1,1,36,18.3,10.2,10.2,0,0,1,46.2,28.5Z"/></g></svg>