<svg id="Layer_1" data-name="Layer 1" xmlns="http://www.w3.org/2000/svg" viewBox="0 0 72 72"><defs><style>.cls-1{fill:#f8bb84;opacity:0.5;}.cls-1,.cls-2{fill-rule:evenodd;}.cls-2{fill:none;stroke:#f8bb84;stroke-linecap:round;stroke-linejoin:round;stroke-width:2px;}</style></defs><g id="rating-02-icon"><g id="pin-orange"><path id="pin-fill" class="cls-1" d="M36,46S53,34.15,53,18.92a17,17,0,0,0-34,0C19,34.15,36,46,36,46Zm6.8-27A6.8,6.8,0,1,1,36,12.2,6.79,6.79,0,0,1,42.8,19Z"/><path id="pin-stroke" class="cls-2" d="M36,46S53,34.15,53,18.92a17,17,0,0,0-34,0C19,34.15,36,46,36,46Zm6.8-27A6.8,6.8,0,1,1,36,12.2,6.79,6.79,0,0,1,42.8,19Z"/></g><g id="pin-orange-2" data-name="pin-orange"><path id="pin-fill-2" data-name="pin-fill" class="cls-1" d="M15,70.5s12.75-8.88,12.75-20.31a12.66,12.66,0,0,0-3.73-9,12.8,12.8,0,0,0-18,0,12.66,12.66,0,0,0-3.73,9C2.25,61.62,15,70.5,15,70.5Zm5.1-20.25a5.1,5.1,0,1,1-5.1-5.1A5.1,5.1,0,0,1,20.1,50.25Z"/><path id="pin-stroke-2" data-name="pin-stroke" class="cls-2" d="M15,70.5s12.75-8.88,12.75-20.31a12.66,12.66,0,0,0-3.73-9,12.8,12.8,0,0,0-18,0,12.66,12.66,0,0,0-3.73,9C2.25,61.62,15,70.5,15,70.5Zm5.1-20.25a5.1,5.1,0,1,1-5.1-5.1A5.1,5.1,0,0,1,20.1,50.25Z"/></g><g id="pin-orange-3" data-name="pin-orange"><path id="pin-fill-3" data-name="pin-fill" class="cls-1" d="M57,70.5s12.75-8.88,12.75-20.31a12.66,12.66,0,0,0-3.73-9,12.8,12.8,0,0,0-18,0,12.66,12.66,0,0,0-3.73,9C44.25,61.62,57,70.5,57,70.5Zm5.1-20.25a5.1,5.1,0,1,1-5.1-5.1A5.1,5.1,0,0,1,62.1,50.25Z"/><path id="pin-stroke-3" data-name="pin-stroke" class="cls-2" d="M57,70.5s12.75-8.88,12.75-20.31a12.66,12.66,0,0,0-3.73-9,12.8,12.8,0,0,0-18,0,12.66,12.66,0,0,0-3.73,9C44.25,61.62,57,70.5,57,70.5Zm5.1-20.25a5.1,5.1,0,1,1-5.1-5.1A5.1,5.1,0,0,1,62.1,50.25Z"/></g></g></svg>