<svg id="Layer_1" data-name="Layer 1" xmlns="http://www.w3.org/2000/svg" viewBox="0 0 42 84"><defs><style>.cls-1{fill:#fff;}</style></defs><path id="scanned-items-icon" class="cls-1" d="M14.84,13.36a1.22,1.22,0,1,1-2.4.47C12,12.26,14.56,11.82,14.84,13.36ZM5.33,19.45c-1.11-2.26.92-5.07,2.51-6.61.65-2.53,2.21-5.59,5.2-5.56,2.13,0,5.15.93,5.43,3.33a.8.8,0,0,1-.31,1,9.78,9.78,0,0,1-.48,4.85A26.05,26.05,0,0,1,15.25,22a.66.66,0,0,1-.41.3,1.26,1.26,0,0,1-.78-.15,15,15,0,0,1-4.17-4.48,5.14,5.14,0,0,1-1.74,1.6h0A2.56,2.56,0,0,1,5.33,19.45Zm1-1h0v0Zm0,0Zm0,0h0ZM15,11.31a1.19,1.19,0,0,1,.11.26c.62-1,0-2.66-1.31-2.2a1.75,1.75,0,0,0-.85.94v0c0,.1-.06.2-.08.3h0s0,0,0,.06a.5.5,0,0,1,.12.28,1,1,0,0,1,.7.51l0,0s.1-.52.11-.57a.2.2,0,0,1,.36-.08C14.47,10.63,14.8,11.08,15,11.31Zm2,1.23a4,4,0,0,0-.15-.91,2.26,2.26,0,0,1-.94-.14c-.15.23-.41.78-.73.67,0,.14-.25.15-.34.05s0-.37-.14-.54a1,1,0,0,0-.47-.5h0c-.07.28,0,1-.51.79-.09.13-.31,0-.34-.1a.69.69,0,0,0-.2-.3.94.94,0,0,0-.26-.14c-.3.47-1,.47-1.42.72a12.57,12.57,0,0,0-1.9,1c-.11,1.89,1.4,3.75,2.32,5.07a11.34,11.34,0,0,0,2.54,2.54,18.4,18.4,0,0,0,1.08-2.18l0-.05A15,15,0,0,0,17,12.54ZM6.33,18.33a.49.49,0,0,0,0,.12,2,2,0,0,0,.93-.17c.05,0,0,0,0,0l.06,0,0,0a10.6,10.6,0,0,0,1.35-1.05c.25-.24.18-.66.42-.9a7.24,7.24,0,0,1-.69-1.85,1.11,1.11,0,0,1-.26,0,8.58,8.58,0,0,0-1.45,2.28A4.25,4.25,0,0,0,6.33,18.33Zm0,.12ZM39.24,80.93c-.1.56-.51.75-1,.88a12.22,12.22,0,0,1-4.66.32c-1.19-.23-6.1-.23-6-1.8a24.77,24.77,0,0,0,.06-6.55l-.26-3.13-.52-6.23a33.45,33.45,0,0,0-1.25-3.37s-.09-.2,0-.09a60.62,60.62,0,0,0-4.39-8.61c-.21-.25-.46-.56-.79-.6a33,33,0,0,0-3.78,7,56.3,56.3,0,0,0-2,5.88h0a39.16,39.16,0,0,0-1.15,12.9c.12,1.55,2,3.1,1.43,4.9-1.73,2.17-5,1.77-7.18.57a1.8,1.8,0,0,1-.89-1.29c-.29-1.27.59-2.23,1.34-3.13a3.85,3.85,0,0,0,.74-3.1c-.11-5.89-.71-12,1.4-17.58.54-1.71,1.27-3.38,1.68-5.12a13.27,13.27,0,0,1,.26-2.09v0a.66.66,0,0,1,.14-.26,6,6,0,0,1-.3-.56c-2.06-.62-3.79-2.28-5.38-3.71-1.29-1.44-3.08-2.78-3.87-4.55A76.22,76.22,0,0,1,7.21,28a22.39,22.39,0,0,1,9.69-4.64c2.58-.58,5.23-.05,7.84-.4a41.34,41.34,0,0,0,7.34-1.86,25.2,25.2,0,0,0,1.5-7.94c-1.44.11-2.16-1.36-2.7-2.47-1.68,0-2.11-2.22-1.24-3.36-.4-1-.94-2.56.45-3A5.68,5.68,0,0,1,32.4,4a2.12,2.12,0,0,1,1.19,2.27c4.71,1.48,4.24,13.52,3.24,17.47a3.28,3.28,0,0,1-2.52,2.55c-3,1.36-6.27,1.8-9.22,3.16-.19.11-.57.29-.68.5a54.44,54.44,0,0,0,2.41,20.16c1.45,4.37,4.29,8.18,5.72,12.54.15,4.3.12,8.71,1,13a3.52,3.52,0,0,0,.66,1.73c1.21,1.49,3.09,2.12,4.78,2.87A.69.69,0,0,1,39.24,80.93ZM30.85,9.37h0Zm2.54,2.45h0ZM4.05,41.33v0S4,41.29,4.05,41.33Zm0,0h0v0Zm0,0h0S4,41.33,4.05,41.36ZM8.22,81.82s0,0,0,0Zm0,0s0,0,0,0Zm12.31-30Zm16.35,29c-2.81-1.11-4.69-2.89-4.88-6a111.93,111.93,0,0,1-.8-12A39.71,39.71,0,0,0,29,57.87a47.34,47.34,0,0,1-6-22.94c0-1.87-.32-3.89.26-5.69a5.27,5.27,0,0,1,2.56-1.61c2.95-1,6.09-1.59,8.89-3a1.62,1.62,0,0,0,.82-1.22,29,29,0,0,0,0-12.2,5.21,5.21,0,0,0-1.68-3.35,2.16,2.16,0,0,0-2.75,0h0a.61.61,0,0,1-.34.17,2,2,0,0,0-.22.63c0-.14,0,.06,0,.1V9c0-.15,0,.16,0,.18s0-.06,0,0a.44.44,0,0,0,.15.18c-.08-.08,0,0,0,0s.08,0,.12,0h0c1.08-.41,1.34,1.36,1.87,2a1,1,0,0,0,.22.25s.12.1,0,0a1.41,1.41,0,0,0,.38.21c.19.06.33-.11.53-.1a.64.64,0,0,1,.89,0c.45.75,0,1.78,0,2.63a24,24,0,0,1-1.67,7.53h0c-.16.46-1.11.55-1.65.77a33.45,33.45,0,0,1-7.71,1.71c-1.91.14-3.9-.12-5.78.13A23.74,23.74,0,0,0,8.39,28.6h0l-.05.1A115.3,115.3,0,0,0,4.05,41.35a1.78,1.78,0,0,0,.38.53c2.26,2.56,4.64,5.18,7.75,6.72a.65.65,0,0,1,.9.42c.17.43.34,1,.84,1.17a.86.86,0,0,0,.16,0c.1,0,.16-.13.2-.22a8.8,8.8,0,0,0,0-2.74s0,.1,0,0a3,3,0,0,0-.21-.9s0,0,0,0h0l0,0,0,0h0c-.31-.07-.58.3-.74.52-.21.44-.77.75-1.16.32-1.18-.4-2-1.66-2.85-2.55A17.22,17.22,0,0,1,6.78,40.9a2.51,2.51,0,0,1,0-2.45,41.88,41.88,0,0,1,2-5.09.66.66,0,0,1,1.21.12,33.41,33.41,0,0,1,2.72,6.22,25.13,25.13,0,0,1,1,5.28c1.58-.32,1.9,1.51,1.95,2.69.24,1.63.16,4.55-2.25,3.72a.8.8,0,0,0,0,.15c-.31,4.19-2.85,7.91-3.12,12.14a75.23,75.23,0,0,0-.07,10.93c0,1.37.22,2.83-.52,4.06a18.46,18.46,0,0,1-1.15,1.57,3.65,3.65,0,0,0-.32.45c-.06.11,0,0,0,0A1.44,1.44,0,0,0,8,81.4c0-.07,0,0,0,0v0a.68.68,0,0,0,.18.37,6.45,6.45,0,0,0,.59.29h0l.07,0a6.31,6.31,0,0,0,3,.52,3.05,3.05,0,0,0,1.75-.83v-.15s0-.28,0-.13a7.81,7.81,0,0,0-1.09-2.34A8.73,8.73,0,0,1,12,75.67a41.25,41.25,0,0,1,7.28-24.81c1.42-1.26,3,.42,3.58,1.71a67.8,67.8,0,0,1,5.31,11.55c.18,3.2.57,6.82.81,10A20.93,20.93,0,0,1,28.88,80,19.76,19.76,0,0,0,36.86,80.73ZM14,46.27s0,0,0,0Zm-1.65-.44.08-.1c-.12-.55-.14-1.36-.22-1.8a23.5,23.5,0,0,0-1.72-6.31c-.34-.83-.74-1.64-1.15-2.44-.57,1.42-1.08,3-1.61,4.39a5.39,5.39,0,0,0,.23.75,15.61,15.61,0,0,0,1.84,2.83A17.69,17.69,0,0,0,12.36,45.83Zm-3-10.65h0ZM8.8,82.09l.07,0-.07,0Zm1.47-18.91s0,0,0,0Zm.41,19.45h0ZM8,81.4v0Zm18.8-17h0ZM33.86,3h0L35.16.34c.13-.26-.25-.49-.37-.22L33.48,2.79C33.36,3.05,33.74,3.28,33.86,3Zm.15.79a.22.22,0,0,0,.23.32q2.05-.58,4.14-1c.28-.06.16-.48-.11-.43A28,28,0,0,0,34,3.81ZM14,46.3h0Zm0,0Z"/></svg>