<svg id="Layer_1" data-name="Layer 1" xmlns="http://www.w3.org/2000/svg" viewBox="0 0 90 70"><defs><style>.cls-1{fill:#f8bb84;}</style></defs><path id="scan-icon" class="cls-1" d="M22.7,11.56a1,1,0,0,0-.95.89.89.89,0,0,0-.43.77q-.16,4.19-.09,8.38c.08,1.06-.71,3.37,1.09,3.18,3.78,0,7.57-.17,11.35-.11a.94.94,0,0,0,.92-1.18c0-2.81,0-5.64,0-8.46-.1-1,.37-2.18-.24-3a1,1,0,0,0-.68-.29C30,11.65,26.34,11.14,22.7,11.56Zm10,2c-.08,3.06,0,6.12,0,9.19-3.21-.08-6.4.17-9.6.09.13-3.15-.05-6.3.14-9.44A76.59,76.59,0,0,1,32.69,13.59ZM22.32,24.78h0S22.15,24.8,22.32,24.78Zm32.39-3.25c.23,1.14-.29,3.47,1.29,3.67h0c3.55-.09,7.1-.22,10.64-.48A1,1,0,0,0,68.16,24a83.43,83.43,0,0,1,.13-9.22c0-1.06.47-3.13-1-3.32a85.52,85.52,0,0,0-10.74.28c-.83-.48-2.21.67-1.5,1.54A45.72,45.72,0,0,0,54.71,21.53Zm10-8.24c.57,0,1.14,0,1.71,0-.13,3.16-.38,6.34-.22,9.51-3.15.2-6.3.36-9.45.43a43.34,43.34,0,0,1,.12-9.66C59.5,13.4,62.11,13.28,64.73,13.29ZM58.58,16.2a1,1,0,0,1,1.12-.92l3.44-.1a2.62,2.62,0,0,1,1.08.09c.72.29.68,1.15.66,1.8l0,1.19,0,2.29c0,.8-.93,1.16-1.6.92a1.09,1.09,0,0,0-.23-.06,16.22,16.22,0,0,1-3.75-.1,1,1,0,0,1-.76-.94C58.64,19,58.64,17.59,58.58,16.2ZM26,15.21c1.37.17,6.13-.87,5.21,1.71,0,1,0,2.11-.05,3.15,1.08,2.2-4.17,1.38-5.31,1.42a1.22,1.22,0,0,1-1.07-1.3C24.79,19,24,14.78,26,15.21Zm8.51,31.65a1,1,0,0,0-.88-1.32q-4.53-.16-9.06-.16H22a.94.94,0,0,0-.82,1.4,103.54,103.54,0,0,0,.1,10.86.94.94,0,0,0,.9,1.23c3.72,0,7.45,0,11.17.1a.92.92,0,0,0,.86-.55.93.93,0,0,0,.47-.8C34.53,54,34.48,50.46,34.47,46.86ZM24.6,57H23.12c-.18-3.21-.24-6.45-.1-9.67,3.18,0,6.36,0,9.54.12,0,3.22,0,6.43.14,9.65C30,57,27.3,57,24.6,57Zm6.53-2.72a1,1,0,0,1-1.21.92,15.66,15.66,0,0,0-3.62-.12.91.91,0,0,1-1.19-.1c-.6-.84-.14-2.06-.23-3,.15-.95-.3-2.33.64-2.95.58-.33,1.62,0,2.27,0l2.37.22a1,1,0,0,1,1,1C31.07,51.5,31.07,52.87,31.13,54.25ZM55,32.55c-2.06-13.84-18.9-8.37-16.8,4.07.75,4.83,3.93,9,7.54,12.15l.84,1a1,1,0,0,0,1.35,0C52,45,56.06,39.16,55,32.55Zm-1.83,3.7a1.64,1.64,0,0,1,0,.22c0,.18,0,0,0,0-.48,3.64-2.51,6.81-4.72,9.67.06-.08.07-.1.07-.09-.4.5-.84,1.06-1.26,1.57C43.2,44,39.3,39,40,33.31v0A9.08,9.08,0,0,1,41.8,29a7,7,0,0,1,4.29-2.58h0a7.72,7.72,0,0,1,1.86,0h-.06C52.47,26.91,53.54,32.4,53.13,36.25Zm-7-9.85h.1S46.23,26.4,46.09,26.4Zm1.73,0h0Zm-2,4.55-.06.09.05-.09Zm2.06,0-.11,0,.09,0Zm-1.4-.25Zm.38,5.26h0ZM46,30.8l-.07.05h0Zm3.43-1.21c-1.51-1-4-1.31-5.18.32a4.56,4.56,0,0,0-1.42,5.53,4.31,4.31,0,0,0,5.09,2.15C51,36.45,52.5,31.58,49.38,29.59Zm-4.86,3s-.07.15,0,0Zm2.82,3.16Zm1.87-3a3.22,3.22,0,0,1-2.35,3.1c.15,0-.11,0-.14,0l.1,0a2.56,2.56,0,0,1-2.17-1.09c.18.2,0,.05,0,0a1.92,1.92,0,0,1-.35-1.41,3.27,3.27,0,0,1,1-1.88c.06-.05.34-.28.09-.09a1.25,1.25,0,0,0,.36-.4s.07-.1.08-.14l0,.05a.47.47,0,0,1,.1-.1l0,0s.19-.15.11-.07a1.07,1.07,0,0,1,.49-.14H46.3a3.06,3.06,0,0,1,1.43.21l.16.06a.06.06,0,0,1,0,0,3.25,3.25,0,0,1,.57.33c.08.05.26.21,0,0a1.89,1.89,0,0,1,.8,1.36C49.13,32.15,49.24,32.74,49.21,32.81ZM21.7,30.36c-1.11,0-1.13-1.48-1.07-2.3h0a1.08,1.08,0,0,1,.72-1.17c.43-.09,1.07-.36,1.46,0q4.07,0,8.13.06A.93.93,0,0,1,31.89,28a1.27,1.27,0,0,1-1.16,2.11A63.34,63.34,0,0,0,21.7,30.36Zm4.57,10.69c2.25-.11,4.51-.11,6.75,0a1,1,0,0,1,.68.29c.45.35.23,1.49.3,2a1,1,0,0,1-1,1,57.74,57.74,0,0,0-9.2.27,1,1,0,0,1-.83-1.4c-.14-3.71-.31-7.49-.13-11.18.37-1.32,2.77-1.22,2.89.19A51,51,0,0,1,26.27,41.05Zm24-21.59c-.13-2.3-.27-4.6-.38-6.89,0-.85.9-1,1.56-1,.49-.05,1-.32,1.49-.05a1.27,1.27,0,0,1,.68,1l.22,8.7c.61,1-.67,1.82-1.57,1.49l-12.84.49a1.38,1.38,0,0,1-1.16-1.53l.27-1.48a1,1,0,0,1,.93-.7c1.8,0,6.2,0,8,0ZM35.85,14.84a5.61,5.61,0,0,1,.38-1.64c.5-.85,1.78-.69,2.61-.76,2.89-.19,5.82-.14,8.67-.2a1,1,0,0,1,.71.92,17.91,17.91,0,0,1,0,2.74A.93.93,0,0,1,47.3,17a60.46,60.46,0,0,0-7.24.51c-.47.07-2,.29-2.76.45h0a1,1,0,0,1-1.06-.45C35.12,17.08,35.81,15.7,35.85,14.84ZM54.72,58.45A1,1,0,0,1,53.9,57l0-.91A1,1,0,0,1,54.05,55a1,1,0,0,1,.67-.28,86.05,86.05,0,0,0,10.15-.41,43.9,43.9,0,0,0-.35-5.61c-.47.05-.93.12-1.41.13-.68.63-1.82.43-2.69.54a1,1,0,0,1-.9-.65c-.54-.23-.56-.89-.5-1.39,0-.72.22-1.49,1.3-1.66l6.47-.1a1.31,1.31,0,0,1,1.37.51c.38.79.06,1.74.11,2.59,0,2.95.15,5.92,0,8.87a1,1,0,0,1-1.16.91.86.86,0,0,1-.39.09C62.71,58.4,58.71,58.37,54.72,58.45Zm5.69-9.12h0ZM44.06,57.82c0,1.81-5.73,1.24-7,1a.94.94,0,0,1-.71-.91c0-1.52,0-3,0-4.55a1.07,1.07,0,0,1-.26-.63l-.27-4.63a1.1,1.1,0,0,1,.07-.36c.29-.77,1.48-.6,2.22-.76a1.23,1.23,0,0,1,1.3.41c.48.68.17,2.13.27,3,0,1.79.1,4,0,5.76a12.83,12.83,0,0,1,3.39-.1C44.05,56.12,44,57.05,44.06,57.82ZM64.5,41.94c0-.67,0-2.08,0-2.76l.06-11.62c-.43-1.41,1.75-1.76,2.73-1.42a1,1,0,0,1,.7.92c-.31,3.72-.49,7.46-.54,11.2-.19,1.65.53,4-.66,5.3a1.49,1.49,0,0,1-2.42-.35A1.84,1.84,0,0,1,64.5,41.94Zm-4.6-7.07c-.06-1.23,0-2.95-.12-4.16a1.63,1.63,0,0,0-2.7-1A1.92,1.92,0,0,0,56.39,31a.8.8,0,0,0-.2.56l.58,9.58.16,2.68a1,1,0,0,0,1.32.89,15.29,15.29,0,0,0,3.24.13c.61,0,1.44,0,1.76-.63a.87.87,0,0,0,.55-.83l-.07-5.17c0-1.3-2-1.22-2.4-.18s-.06,2.36-.1,3.37L60,41.48ZM60,44.28h0ZM50.8,53.6h0a.76.76,0,0,1-.4-.09c-1.52.09-1.53-2.94-.22-3.27,3-.2,8.36-.3,11.29-.39a1.75,1.75,0,0,1,1.64,1.1,1.62,1.62,0,0,1-.06,1,1,1,0,0,1-.28.78,1.55,1.55,0,0,1-1,.32c-.71,0-1.44,0-2.15,0C56.67,53.24,53.74,53.4,50.8,53.6Zm-6.24-.49c-.13-.79.29-1.83-.58-2.31s-3.82-.48-3.12,1.28l0-.07a2.4,2.4,0,0,1,.12.38h0l.35,2.12a1,1,0,0,0,.43.57c.67.32,1.38,0,2.07,0a1,1,0,0,0,.94-.77C44.82,53.87,44.6,53.5,44.56,53.11ZM43.48,54h0Zm-7.77-18.4c-1.63-.19-3.27-.36-4.9-.52-.07,1-.11,2.66-.19,3.61a1.24,1.24,0,0,1-2.45.27,18.47,18.47,0,0,1-.31-3.26l-.14-2.44a.74.74,0,0,1-.08-.39l0-.33c0-.74.75-1,1.37-1.09a38.79,38.79,0,0,0,4.81.28l.43-4a1.12,1.12,0,0,1,1.36-1,1,1,0,0,1,1.43.87c-.08,1.35-.2,3.69-.27,5a1,1,0,0,1-.1,1.17,2.37,2.37,0,0,1,0,.75v.11A1,1,0,0,1,35.71,35.62Zm-.2,3.09a1.1,1.1,0,0,1-.82,1.06c-.63.18-1.48.57-1.93-.11-1-.21-.61-1.39-.83-2.1a1,1,0,0,1,.92-1.21,3.18,3.18,0,0,1,2.28.25C35.72,37.12,35.45,38,35.51,38.71ZM57.44,4.76h0c4.7-.58,10.61-.21,15.35-.33.11,2.64-.53,5.26-.44,7.92a53,53,0,0,0,.41,7A1,1,0,0,0,73,20a1,1,0,0,0,1.63-.67c-.69-4.8-.31-9.63.09-14.42,0-2.89-1.74-2.41-3.9-2.41-4.2.11-9.81-.25-13.93.4A1,1,0,0,0,57.44,4.76Zm15.29-.55a.13.13,0,0,1,0-.09A.29.29,0,0,1,72.73,4.21ZM61.07,65.74c-.46.09-1,.14-1.33-.3A1,1,0,0,1,60.25,64a64,64,0,0,1,13.12-.52,76.22,76.22,0,0,1,.21-14.72,1,1,0,0,1,1-1,1,1,0,0,1,1,1c-.13,1.14-.23,2.29-.31,3.44C74.1,71.63,80.11,63.1,61.07,65.74ZM14.91,8.2Q15,14.92,15,21.63a1,1,0,0,0,1.62.67.94.94,0,0,0,.29-.68q0-7.92-.16-15.83l7.07-.35,6.9-.32a1,1,0,0,0,0-1.91q-6.34.29-12.69.61C14.28,3.73,14.86,5.16,14.91,8.2Zm1.75-2.39h0C16.81,5.78,16.76,5.83,16.66,5.81Zm.36,59v0C17.07,64.88,17,64.85,17,64.76Zm14.08.52a4.07,4.07,0,0,1-1.08.27,102.46,102.46,0,0,1-13-.7l0-.15a0,0,0,0,1,0,0c.09-5.64.27-11.31-.64-16.91a.93.93,0,0,0-.8-.69,1,1,0,0,0-1.05,1.21h0l0,.24a72.72,72.72,0,0,1,.57,13c.06,1.6-.63,3.83.84,4.95a4.81,4.81,0,0,0,1.85.37c3.5.35,7,.57,10.55.64,1.18,0,4.84.07,4-1.87A1,1,0,0,0,31.1,65.28Zm-14-.37h0Zm0-.06Zm-.06,0Zm.1.08c0,.07,0,0,0,0Z"/></svg>