<svg id="Layer_1" data-name="Layer 1" xmlns="http://www.w3.org/2000/svg" viewBox="0 0 32 32"><defs><style>.cls-1{fill:#4b4fb8;}</style></defs><path id="toilets-icon" class="cls-1" d="M24.21,17.08,12.07,17h0a.8.8,0,0,1-.63-1.26.59.59,0,0,1,.33-.29,28.24,28.24,0,0,1,3.06-.21c1.66-.06,3.32-.07,5-.08s3.33-.31,4.81.45A.81.81,0,0,1,24.21,17.08Zm.22.93a.8.8,0,0,0-.57-.24c-5.33,0-10.65-.07-16-.24-.54,0-.81.52-.85,1a5.64,5.64,0,0,0,2.79,4.56,1.66,1.66,0,0,0,.16.33l0,0h0a4.3,4.3,0,0,1,.34.59,3.05,3.05,0,0,1-.12,2.48c-.25.61-1,.9-1,1.6a.81.81,0,0,0,.79.8,62,62,0,0,0,10.37.53c1.09,0,2.05-.19,1.67-1.52-.16-.31-.5-.51-.67-.84a3.74,3.74,0,0,1-.53-1.38,3.88,3.88,0,0,1,.33-2,6,6,0,0,0,3.49-5.14A.8.8,0,0,0,24.43,18Zm-17-1.43c4.65,1.76,4.39-3.83,4.27-6.84a14.73,14.73,0,0,0-.92-5.59A3.89,3.89,0,0,0,8.05,2.53.83.83,0,0,0,7,3.3V15.85A.91.91,0,0,0,7.42,16.58Z"/></svg>