<svg id="Layer_1" data-name="Layer 1" xmlns="http://www.w3.org/2000/svg" viewBox="0 0 32 32"><defs><style>.cls-1{fill:#4d4bc0;}</style></defs><path id="wheelchair-accessible-icon" class="cls-1" d="M10.54,9.45a1.12,1.12,0,0,0,2-.23c.56-1.46,1.19-3.06.42-4.57a2.26,2.26,0,0,0-4,.06C8,6.39,9.34,8.26,10.54,9.45Zm-.21-3.62h0a.74.74,0,1,1,1.39.39A.74.74,0,0,1,10.34,5.82Zm9.78,16.39c-.18,5.13-6.52,7.88-10.71,5.29-4.62-2.44-5.31-9.63-1-12.71h0c1-1,2.58.52,1.56,1.53a9,9,0,0,0-1.11,1c-.06.08-.22.3-.09.11a5.7,5.7,0,0,0,.12,6.8,5.4,5.4,0,0,0,7.41,1,4.25,4.25,0,0,0,1.6-2.82A1.21,1.21,0,0,1,19,21.13,1.1,1.1,0,0,1,20.11,22.22ZM26.49,24A1.09,1.09,0,0,1,26,25.13c-1,.43-2,1.38-3.15,1.12a1.14,1.14,0,0,1-.54-.45L19.74,21c-1.13,0-3.67.31-4.78.37-1.16.23-2.81.19-3.06-1.26-.16-.82-.27-1.89-.41-2.73a8.11,8.11,0,0,1-1.05-3.27c-.42-1.54-.23-4.1,1.82-3.33,1.54.91,2,3.32,2.18,4.94a10.41,10.41,0,0,0,1.4.28c.29,0,.62,0,.92.07.64.08,1.42-.17,1.93.33a1.1,1.1,0,0,1,0,1.54,1.13,1.13,0,0,1-.78.31,14.45,14.45,0,0,1-3.29-.3c0,.3,0,.61,0,.91a15.69,15.69,0,0,1,5.25-.07,1.67,1.67,0,0,1,1.06.09,1,1,0,0,1,.4.4l2.41,4.54a11.94,11.94,0,0,1,1.53-.74A1.11,1.11,0,0,1,26.49,24Z"/></svg>