<svg xmlns="http://www.w3.org/2000/svg" viewBox="0 0 788.85 204.6"><defs><style>.cls-1{fill:#f8bb84;}.cls-2,.cls-3{fill:#4d4bc0;}.cls-3{stroke:#4d4bc0;stroke-miterlimit:10;}</style></defs><g id="logo_3" data-name="logo 3"><g id="pin"><path class="cls-1" d="M321.85,124.23a133.11,133.11,0,0,1-9.76-10q-2.29-2.62-4.47-5.36c-.32-.41-1.46-2.13-.16-.21-.33-.47-.71-.92-1.06-1.39-.69-.93-1.38-1.87-2-2.82A131.65,131.65,0,0,1,290.44,80l.75,1.79a73,73,0,0,1-5.09-17.91l.27,2a51.73,51.73,0,0,1-.12-13.56l-.27,2a43.88,43.88,0,0,1,2.94-10.86l-.76,1.79a40.21,40.21,0,0,1,3.24-6.12c.31-.49.63-1,1-1.43.18-.27.45-.55.61-.84-.05.1-1.17,1.47-.54.7.76-.94,1.55-1.85,2.4-2.72s1.65-1.62,2.53-2.37l.67-.56c.92-.76-1.27.95-.55.42.47-.34.94-.69,1.42-1a37.67,37.67,0,0,1,6.46-3.5l-1.79.76a40.82,40.82,0,0,1,10.13-2.73l-2,.27a42.59,42.59,0,0,1,10.82,0l-2-.26a40.7,40.7,0,0,1,10,2.69l-1.79-.75a38.61,38.61,0,0,1,5.41,2.82c.45.29.9.59,1.34.9.29.21,1.64,1.22.55.38s.37.32.65.56.82.73,1.21,1.11c.76.72,1.48,1.47,2.17,2.26a12,12,0,0,0,1,1.19c-.06,0-1.11-1.5-.48-.62l.54.77a34.07,34.07,0,0,1,3.12,5.68L343.53,41a39.42,39.42,0,0,1,2.67,9.9l-.26-2a56.17,56.17,0,0,1-.13,14.54l.27-2a86.06,86.06,0,0,1-6.14,21.51l.75-1.79a134.22,134.22,0,0,1-12.86,23.07c-1.26,1.84-2.55,3.65-3.87,5.45l-1.81,2.42c-.35.45-.71.9-1,1.37,1.39-1.92.17-.21-.15.19-2.73,3.5-5.56,6.92-8.43,10.32a8,8,0,0,0-2.2,5.3,7.61,7.61,0,0,0,2.2,5.3c2.78,2.56,7.89,3.2,10.6,0C337.24,117.88,350.48,100,357.35,79c6.14-18.75,6.44-42-9.05-56.42-14.88-13.88-39.13-15.85-56.22-4.81a46.45,46.45,0,0,0-18.14,22.9c-3.83,10-3.74,21.12-1.54,31.47,2.33,11,7.37,21.36,13.14,30.9a147.54,147.54,0,0,0,20.1,26.29q2.72,2.82,5.61,5.47c2.88,2.66,7.79,3.07,10.6,0,2.66-2.89,3.08-7.77,0-10.61Z"/></g><g id="pincircle"><path class="cls-2" d="M320.76,52.93v-.09l.27,2a3,3,0,0,1,0-.79l-.26,2a3.77,3.77,0,0,1,.2-.75l-.75,1.79a3.85,3.85,0,0,1,.44-.76l-1.17,1.52a4.26,4.26,0,0,1,.76-.77l-1.52,1.18a4.21,4.21,0,0,1,.94-.55l-1.79.75a4.12,4.12,0,0,1,1-.29l-2,.27a3.79,3.79,0,0,1,.89,0l-2-.27a3.46,3.46,0,0,1,.78.21l-1.79-.76a4.42,4.42,0,0,1,.76.44L314,56.86a4.18,4.18,0,0,1,.66.67L313.52,56a5,5,0,0,1,.51.9l-.76-1.79a4.85,4.85,0,0,1,.31,1.19l-.26-2a5.72,5.72,0,0,1,0,1.24l.27-2a4.87,4.87,0,0,1-.32,1.19L314,53a4.59,4.59,0,0,1-.48.83l1.17-1.52a4.37,4.37,0,0,1-.68.68l1.52-1.18a4.67,4.67,0,0,1-1,.58l1.8-.76a5.36,5.36,0,0,1-1.11.3l2-.27a4.28,4.28,0,0,1-1.13,0l2,.27a4.69,4.69,0,0,1-.89-.24l1.8.75a3.37,3.37,0,0,1-.78-.45l1.52,1.17a3.32,3.32,0,0,1-.53-.53l1.17,1.52a4.51,4.51,0,0,1-.48-.82l.76,1.79a4,4,0,0,1-.26-.91l.27,2a4.22,4.22,0,0,1,0-.94l-.26,2a3.71,3.71,0,0,1,.21-.81l-.75,1.8a2.88,2.88,0,0,1,.32-.57L319,59.16l.06-.08a5.6,5.6,0,0,0,1.55-2.41,6.85,6.85,0,0,0,0-5.78,5.6,5.6,0,0,0-1.55-2.41l-1.52-1.18a7.61,7.61,0,0,0-3.79-1l-2,.27a7.55,7.55,0,0,0-3.31,1.93,13,13,0,0,0-1.5,2,11.17,11.17,0,0,0-1,2.4,11.46,11.46,0,0,0-.05,5.24,9.94,9.94,0,0,0,1.17,3,13.42,13.42,0,0,0,1.52,2,7.37,7.37,0,0,0,1.26,1.09,8.54,8.54,0,0,0,1.3.93,13.83,13.83,0,0,0,2.46,1l.35.08c.75.13,1.54.24,2.3.3a3.74,3.74,0,0,0,.82,0,16.59,16.59,0,0,0,2.61-.38,15.64,15.64,0,0,0,2.48-1,4.09,4.09,0,0,0,.68-.38c.6-.41,1.17-.87,1.73-1.33.12-.1.24-.2.35-.31a14.42,14.42,0,0,0,1.55-1.95,3.67,3.67,0,0,0,.36-.6,11.62,11.62,0,0,0,1.13-3,22.3,22.3,0,0,0,.33-2.57,5.61,5.61,0,0,0,0-.71,12.59,12.59,0,0,0-.56-3.23,19.53,19.53,0,0,0-1-2.26,13.5,13.5,0,0,0-1.49-2,5,5,0,0,0-.44-.48l-.22-.2a19.12,19.12,0,0,0-1.77-1.34,9.45,9.45,0,0,0-1.41-.65,7.3,7.3,0,0,0-1.54-.56,19.15,19.15,0,0,0-2.26-.3H317c-.76.06-1.56.18-2.31.31a3.92,3.92,0,0,0-.74.22,15.45,15.45,0,0,0-2.4,1,16.84,16.84,0,0,0-2.08,1.56,5.5,5.5,0,0,0-.54.54c-.47.57-1,1.16-1.36,1.77a3,3,0,0,0-.21.33,2.3,2.3,0,0,0-.15.32,17.17,17.17,0,0,0-.86,2.08c0,.11-.06.22-.09.33a17.87,17.87,0,0,0-.3,2.3,12.23,12.23,0,0,0,.3,2.71,5.71,5.71,0,0,0,1.34,2.55,5.69,5.69,0,0,0,2.11,1.93,5.61,5.61,0,0,0,2.79.89,5.74,5.74,0,0,0,3-.13l1.79-.76A7.62,7.62,0,0,0,320,58.71l.75-1.79a7.51,7.51,0,0,0,0-4Z"/></g><path id="name" class="cls-3" d="M69.91,129a61.24,61.24,0,0,1-22.06-3.9,54.24,54.24,0,0,1-17.85-11,49.12,49.12,0,0,1-11.84-17A55.74,55.74,0,0,1,14,75a50.57,50.57,0,0,1,4.42-21.15,51.65,51.65,0,0,1,12.3-17A58.57,58.57,0,0,1,70.5,21.6,62,62,0,0,1,88,24.07a66.22,66.22,0,0,1,15.3,6.53,45,45,0,0,1,11,8.85l-10.2,12.6a63.12,63.12,0,0,0-15.82-10.5,44.16,44.16,0,0,0-18.68-3.9A40.77,40.77,0,0,0,50.48,42.3,38.29,38.29,0,0,0,36,55.35,34.82,34.82,0,0,0,30.46,75q0,12,5.62,20.55a35.9,35.9,0,0,0,15,13A47.59,47.59,0,0,0,71.71,113a42.67,42.67,0,0,0,19-4A68.47,68.47,0,0,0,105,99.75l8,13.35a50.19,50.19,0,0,1-10.58,7.42,72.31,72.31,0,0,1-15,6.08A62.79,62.79,0,0,1,69.91,129Zm79-1.5V22.5h54a33.4,33.4,0,0,1,16.8,4.35,34.27,34.27,0,0,1,12.3,11.77,30.87,30.87,0,0,1,4.65,16.73,30.25,30.25,0,0,1-6.45,18.9,35.53,35.53,0,0,1-16.35,12l28,41.4L222,127.5l-26.25-39h-30.6v39Zm16.2-54.6h36a18.41,18.41,0,0,0,9.3-2.4,19.22,19.22,0,0,0,6.75-6.38,16.14,16.14,0,0,0,2.55-8.92A14.65,14.65,0,0,0,217,46.5a19.16,19.16,0,0,0-7.43-6.15A23.45,23.45,0,0,0,199.2,38.1h-34Zm257.1,54.6L385.8,22.5h17.55L424.8,86q1.2,3.6,2.4,8t2.25,8.4q1.8-5,3.37-9t3.08-7.5L455,40.65H470.1l18.6,45q1.65,3.9,3.22,7.95t2.93,8.1q1-3.9,2.25-7.65t3-8.85l22.65-62.7h17.4l-39,105H489.9L461.85,62,434,127.5Zm149,0V22.5h47.85q17.4,0,29.62,7a47.1,47.1,0,0,1,18.6,18.83A55.45,55.45,0,0,1,673.65,75a55.77,55.77,0,0,1-6.38,26.85,46.6,46.6,0,0,1-18.6,18.75q-12.23,6.9-29.62,6.9Zm47.1-89.4H587.4v73.8h30.9q13.05,0,21.52-4.73a30.39,30.39,0,0,0,12.68-13A41.87,41.87,0,0,0,656.7,75a41.68,41.68,0,0,0-4.2-18.9,30.61,30.61,0,0,0-12.75-13.2Q631.2,38.1,618.3,38.1ZM733.8,88.69,694.9,158l-622.81-.1,631.42,18.66,85.34-149.4h-18L742.55,74.43,716.08,25.57l-18.35-.85Z"/></g></svg>