<svg id="logo" xmlns="http://www.w3.org/2000/svg" viewBox="0 0 106.3 85.04"><defs><style>.cls-1{fill:none;}.cls-2{fill:#1e64c8;}</style></defs><rect class="cls-1" width="106.3" height="85.04"/><rect class="cls-2" x="31.27" y="24.45" width="1.25" height="8.1"/><rect class="cls-2" x="28.77" y="24.45" width="1.25" height="8.1"/><rect class="cls-2" x="26.28" y="24.45" width="1.25" height="8.1"/><rect class="cls-2" x="23.78" y="24.45" width="1.25" height="8.1"/><rect class="cls-2" x="33.76" y="24.45" width="1.25" height="8.1"/><rect class="cls-2" x="36.25" y="24.45" width="1.25" height="8.1"/><rect class="cls-2" x="38.75" y="24.45" width="1.25" height="8.1"/><rect class="cls-2" x="22.51" y="33.79" width="18.77" height="1.25"/><polygon class="cls-2" points="40 23.2 23.78 23.2 22.54 21.95 41.24 21.95 40 23.2"/><rect class="cls-2" x="21.26" y="36.28" width="21.26" height="1.25"/><polygon class="cls-2" points="42.52 19.93 31.89 16.17 21.26 19.93 21.26 21.26 31.89 17.5 42.52 21.26 42.52 19.93"/><path class="cls-2" d="M31.58,47.34H28.89v4H27.65V42.52h1.24v3.76h2.69V42.52h1.25v8.82H31.58Z"/><path class="cls-2" d="M58.91,55.87a2.25,2.25,0,0,1,1.31.36V55.11a3.15,3.15,0,0,0-1.42-.31,2.26,2.26,0,0,0-2.57,2.31,2.81,2.81,0,0,0,1.26,2.35l.71.61a2,2,0,0,1,.95,1.61c0,.85-.57,1.19-1.42,1.19a2.7,2.7,0,0,1-1.48-.39v1.14a3.38,3.38,0,0,0,1.6.32,2.26,2.26,0,0,0,2.56-2.31,2.79,2.79,0,0,0-1.26-2.35l-.71-.61c-.59-.51-.95-.87-.95-1.6S58.06,55.87,58.91,55.87Z"/><path class="cls-2" d="M50,55h2c1.63,0,2.8.61,2.8,2.61A2.27,2.27,0,0,1,53.29,60l1.88,3.83H53.74l-1.65-3.6h-.84v3.6H50ZM51.25,56v3.11h.66c1,0,1.63-.21,1.63-1.56S52.89,56,51.91,56Z"/><path class="cls-2" d="M21.26,61.12V55h1.25v6.21c0,1.31.45,1.69,1.35,1.69s1.36-.38,1.36-1.69V55h1.25v6.16c0,2-.84,2.82-2.61,2.82S21.26,63.16,21.26,61.12Z"/><path class="cls-2" d="M28.08,55h1.44l2.78,7a19.53,19.53,0,0,1-.17-2.35V55h1.19v8.82H31.88l-2.81-7.05a16.07,16.07,0,0,1,.21,2.37v4.68h-1.2Z"/><path class="cls-2" d="M35.09,55h1.24v8.82H35.09Z"/><path class="cls-2" d="M37.49,55H38.8l1.11,4.59c.16.69.36,1.86.49,2.78a24.07,24.07,0,0,1,.51-2.78L42,55h1.26L41,63.78h-1.3Z"/><path class="cls-2" d="M44.43,55h4.13V56H45.68v2.7H48v1H45.68v3h2.88v1.06H44.43Z"/><path class="cls-2" d="M61.89,55h1.25v8.82H61.89Z"/><path class="cls-2" d="M21,46.93c0-3.47.92-4.57,3.21-4.57a3.71,3.71,0,0,1,1.64.35v1.15a3.34,3.34,0,0,0-1.54-.39c-1.47,0-2,.54-2,3.46s.39,3.48,1.67,3.48a3.57,3.57,0,0,0,1-.12V47.35h-1.3V46.29h2.55v4.76a5.68,5.68,0,0,1-2.2.45C21.57,51.5,21,50.25,21,46.93Z"/><path class="cls-2" d="M34.59,42.52h4.13v1.06H35.84v2.7h2.32v1H35.84v3h2.88v1.06H34.59Z"/><path class="cls-2" d="M40.16,42.52H41.6l2.78,7a17.64,17.64,0,0,1-.18-2.35V42.52h1.2v8.82H44l-2.81-7.06a16.36,16.36,0,0,1,.2,2.38v4.68H40.16Z"/><path class="cls-2" d="M46.54,42.52H51.6v1.06H49.69v7.76H48.44V43.58h-1.9Z"/><path class="cls-2" d="M72.29,60.12,69.88,55h1.37l1,2.38a13.29,13.29,0,0,1,.62,1.72,17.7,17.7,0,0,1,.66-1.72l1-2.38h1.33l-2.4,5.16v3.66H72.29Z"/><path class="cls-2" d="M64.32,55h5.06V56H67.47v7.76H66.22V56h-1.9Z"/></svg>