<svg id="Laag_1" data-name="Laag 1" xmlns="http://www.w3.org/2000/svg" viewBox="0 0 396.87 280.93"><defs><style>.cls-1{fill:#009fe3;}.cls-2{fill:#fff;}</style></defs><rect class="cls-1" width="396.85" height="280.63" rx="26.36"/><path class="cls-2" d="M76,129.84c10.46,2.62,16.44,7.73,18.21,17.73,2.71,15.38-7.71,28.76-27.87,32.32a36.92,36.92,0,0,1-9.44.59,6.5,6.5,0,0,0-2.07,5.75c.48,2.69,2.27,5,10,3.62L77,187.72c17.92-3.16,31.1,4.37,33.42,17.5,2.82,16-9.36,28.14-35.79,32.8-29,5.11-38.54-2.9-41.33-18.74l19-3.34c1.32,7.47,5.18,10.17,20.26,7.51,14.64-2.58,17.81-7.29,16.81-13-1-5.38-5.56-8-13.92-6.48l-11.65,2.05C47.17,209,39,203,37.56,194.67c-1-5.68,1.61-11.83,6.65-16.42-10.8-3.64-16.22-9.92-18-20.07-3.08-17.47,8.83-31.12,28.69-34.62,18.3-2.77,26.74-9,35.35-16.09l8.09,15.35C92.91,126.09,85.57,128.16,76,129.84Zm-28.67,24.3C49,163.25,55,167.73,63,166.31c8.51-1.5,12.1-7.37,10.39-17.07-1.66-9.41-6.78-13.13-15.59-11.57C49.77,139.09,45.82,145.48,47.35,154.14Z"/><path class="cls-2" d="M180.35,151.32,130.92,160c4.18,15,12.14,18.18,22.3,16.39,6.71-1.18,12-4.27,18.05-10.27l10.91,10.4a47.32,47.32,0,0,1-28.12,16c-25.38,4.47-41.62-9.91-46-34.69-4.21-23.89,5.36-44.67,28.51-48.76,22.4-4,38.32,8.64,42.77,33.88C179.83,145.72,180.1,149.05,180.35,151.32Zm-23.1-10.55c-2.11-12-7.51-19-17.67-17.21-8.36,1.47-12.59,8.07-11,23.19l28.82-5.09Z"/><path class="cls-2" d="M258.47,112.29l10.17,57.64-21.21,3.74-9.53-54c-1.61-9.11-5.34-11.07-10.71-10.12-6.13,1.08-10.19,6-13.29,13.74l9.64,54.65-21.21,3.74-14-79.15,18.37-3.24,3.4,9.72c5-9,11.85-14.87,22-16.66C246.05,89.85,255.84,97.36,258.47,112.29Z"/><path class="cls-2" d="M316,164.05c-16.45,2.75-26.47-5.18-29.58-22.8l-6.95-39.43-11.79,2.08L265,89l11.8-2.08-3.05-17.33,20.75-6.28L298,83.16l18.21-3.22.55,15.3-16.13,2.85,6.87,39c1.37,7.77,4.43,10.3,9.81,9.36a17.63,17.63,0,0,0,8.46-4.42l9.71,12.3A37.91,37.91,0,0,1,316,164.05Z"/><path class="cls-2" d="M361.21,84.89a13,13,0,1,1-15.08-10.43A13,13,0,0,1,361.21,84.89Z"/><path class="cls-2" d="M369.62,138.8a13,13,0,1,1-15.09-10.43A13,13,0,0,1,369.62,138.8Z"/></svg>